<svg width="62" height="61" viewBox="0 0 62 61" fill="none" xmlns="http://www.w3.org/2000/svg">
<path d="M59.3741 40.5497L58.3874 38.2092L53.5228 40.1923L50.487 38.7131L55.5868 35.8673L54.3144 33.6615L47.7027 37.3583L45.216 36.1455L50.1849 33.3979C50.5599 33.1899 50.801 32.8135 50.8337 32.3917C50.8679 31.9713 50.6908 31.5627 50.3545 31.3005L45.8916 27.8073L48.5435 27.0003L54.4752 31.6842L56.0868 29.707L51.5108 26.0966L54.746 25.1124L59.2282 27.8293L60.5794 25.6733L58.0124 24.1179L61.9887 22.9037L61.2238 20.4856L57.1895 21.713L58.1077 18.1378L55.6151 17.5182L54.3085 22.5888L50.7772 23.6697L52.2132 18.0762L49.7176 17.4567L47.8917 24.5441L45.3157 25.3292L47.0464 19.1967C47.1595 18.791 47.0628 18.356 46.7845 18.0367C46.5122 17.7203 46.0985 17.5563 45.6639 17.5988L39.2367 18.3033L40.4332 15.9276L47.8322 15.2832L47.606 12.7567L41.7695 13.2649L43.4124 10.0017L48.7101 9.54031L48.4825 7.0182L44.7473 7.34335L46.6223 3.6173L44.3142 2.49538L42.4719 6.16138L41.3186 3.4225L38.9391 4.39063L40.9555 9.17854L39.451 12.1693L36.5596 7.14855L34.3185 8.39789L38.0745 14.9082L36.8453 17.3527L34.0491 12.4623C33.6324 11.7285 32.4523 11.6362 31.9196 12.2953L28.3734 16.6892L27.5519 14.0807L32.311 8.23971L30.302 6.65496L26.6353 11.1602L25.6323 7.97168L28.3957 3.56017L26.2022 2.23174L24.6233 4.75532L23.3911 0.847656L20.9328 1.59609L22.1813 5.56673L18.5488 4.66305L17.9178 7.11779L23.0742 8.40082L24.1694 11.8793L18.4878 10.4645L17.8583 12.9236L25.0593 14.7164L25.857 17.2531L19.6262 15.5497C19.205 15.4443 18.7705 15.5351 18.4461 15.8075C18.1217 16.0785 17.955 16.4915 18.0011 16.9119L18.7184 23.2318L16.3017 22.0571L15.6469 14.7749L13.0859 14.9961L13.5993 20.7419L10.2822 19.1235L9.81792 13.9137L7.25239 14.1364L7.58276 17.8097L3.79994 15.9672L2.65705 18.2344L6.38481 20.0535L3.59755 21.1886L4.58716 23.5276L9.44887 21.5445L12.4861 23.0223L7.38632 25.8711L8.65421 28.0754L15.2704 24.3786L17.7556 25.5899L12.7867 28.3419C12.4162 28.5484 12.1707 28.9234 12.1379 29.3437C12.1037 29.7641 12.2852 30.1742 12.6171 30.4378L17.0815 33.9266L14.4311 34.7366L8.49498 30.0526L6.88631 32.0314L11.4623 35.6373L8.22414 36.623L3.74339 33.9061L2.38919 36.0621L4.9577 37.619L0.98291 38.8302L1.74632 41.2498L5.77766 40.0224L4.85948 43.5976L7.35656 44.2172L8.65718 39.1437L12.193 38.0657L10.7599 43.6592L13.2525 44.2772L15.074 37.1898L17.6559 36.4033L15.9237 42.5372C15.8121 42.9415 15.9088 43.3809 16.1856 43.6987C16.4609 44.0195 16.8836 44.1864 17.3092 44.1366L23.7319 43.4307L22.537 45.8078L15.138 46.4537L15.3627 48.9773L21.2006 48.472L19.5577 51.7337L14.26 52.1951L14.4877 54.7172L18.2199 54.3921L16.3478 58.1166L18.6544 59.24L20.5027 55.5711L21.653 58.3129L24.034 57.3404L22.0176 52.5554L23.5221 49.5675L26.415 54.5869L28.6546 53.3361L24.8986 46.8257L26.1308 44.3812L28.9225 49.2687C29.1323 49.6349 29.5178 49.8766 29.9434 49.9103C30.3705 49.9439 30.7871 49.7653 31.0505 49.4357L34.6012 45.0432L35.4212 47.6518L30.6621 53.4928L32.6741 55.079L36.3393 50.5752L37.3423 53.7608L34.5804 58.1708L36.7739 59.5037L38.3543 56.9757L39.582 60.8863L42.0433 60.1379L40.7933 56.1672L44.4288 57.0724L45.0598 54.6176L39.9034 53.3346L38.8081 49.8575L44.4883 51.2694L45.1193 48.8132L37.9182 47.019L37.1191 44.4837L43.3514 46.1827C43.7711 46.2955 44.2086 46.1988 44.53 45.9279C44.8544 45.6555 45.0196 45.241 44.9735 44.8221L44.2562 38.5022L46.6699 39.6768L47.3292 46.959L49.8917 46.7378L49.3768 40.992L52.6894 42.609L53.1611 47.8217L55.7222 47.6005L55.3918 43.9272L59.1761 45.7682L60.322 43.498L56.5913 41.6819L59.377 40.5468L59.3741 40.5497ZM47.2548 32.1104L42.4243 34.7849L34.9494 31.1423L42.9169 28.7139L47.2548 32.1104ZM44.0597 20.3289L42.4005 26.2226L33.9702 28.7901L37.8855 21.0055L44.0597 20.3289ZM32.7485 15.3549L35.4643 20.1092L31.7648 27.4661L29.2975 19.6244L32.7485 15.3549ZM20.7765 18.4981L26.7632 20.1311L29.3749 28.4283L21.4655 24.5763L20.7765 18.4981ZM15.7213 29.6308L20.5548 26.9549L28.0267 30.5975L20.0622 33.0259L15.7213 29.6308ZM18.9163 41.4139L20.5786 35.5201L29.0088 32.9512L25.0906 40.7343L18.9163 41.4139ZM30.2291 46.3907L27.5118 41.6336L31.2127 34.2781L33.6786 42.1198L30.2291 46.3907ZM42.1996 43.2447L36.2128 41.6101L33.6027 33.3129L41.5106 37.1679L42.1981 43.2461L42.1996 43.2447Z" fill="#79C8D3"/>
</svg>
