<svg width="25" height="24" viewBox="0 0 25 24" fill="none" xmlns="http://www.w3.org/2000/svg">
<path d="M17.0405 9.61176V7.84366V7.58008L16.7823 7.58166L15.0611 7.58673L15.0682 9.61778L17.0405 9.61176Z" fill="white"/>
<path d="M12.555 14.3025C13.6871 14.3025 14.6094 13.3562 14.6094 12.1923C14.6094 11.7329 14.464 11.3097 14.22 10.9624C13.8469 10.4308 13.2406 10.082 12.555 10.082C11.8693 10.082 11.2624 10.4308 10.8893 10.9624C10.6462 11.3097 10.5005 11.7329 10.5005 12.1923C10.5005 13.3559 11.4222 14.3025 12.555 14.3025Z" fill="white"/>
<path d="M12.3245 0C5.86931 0 0.636688 5.37304 0.636688 12C0.636688 18.627 5.86931 24 12.3245 24C18.7796 24 24.0122 18.6285 24.0122 12C24.0122 5.37146 18.779 0 12.3245 0ZM18.3908 10.9628V15.8701C18.3908 17.1475 17.3784 18.186 16.1352 18.186H8.97438C7.73025 18.186 6.71816 17.1475 6.71816 15.8701V8.51671C6.71816 7.23935 7.73056 6.20022 8.97438 6.20022H16.1352C17.3787 6.20022 18.3908 7.23935 18.3908 8.51671V10.9628Z" fill="white"/>
<path d="M15.7464 12.1927C15.7464 13.9995 14.3147 15.471 12.5546 15.471C10.7946 15.471 9.36317 13.9995 9.36317 12.1927C9.36317 11.7584 9.4474 11.3431 9.59798 10.9629H7.85583V15.8702C7.85583 16.5032 8.35663 17.0186 8.97438 17.0186H16.1352C16.7523 17.0186 17.2537 16.5029 17.2537 15.8702V10.9629H15.511C15.6609 11.3431 15.7464 11.7584 15.7464 12.1927Z" fill="white"/>
</svg>
