<svg width="23" height="24" viewBox="0 0 23 24" fill="none" xmlns="http://www.w3.org/2000/svg">
<path d="M12.1256 0.677221C5.88522 0.621147 0.926606 5.65869 0.922595 11.9581C0.918583 18.2426 5.83338 23.3169 11.9303 23.3229C17.9908 23.3286 22.9627 18.2796 22.9997 12.1374C23.0373 5.88616 18.2265 0.732029 12.1256 0.677221ZM16.8281 10.4285C15.8771 10.3994 15.1332 10.1383 14.1624 9.44009C14.1624 10.6731 14.1671 11.8421 14.1606 13.0108C14.1566 13.7211 14.188 14.4371 14.1131 15.1404C13.8998 17.1407 12.2456 18.585 10.3085 18.5137C8.36051 18.4421 6.80813 16.8911 6.69612 14.9047C6.58504 12.9351 7.97882 11.1895 9.89531 10.8977C10.8185 10.7571 10.8596 10.7932 10.8596 11.7442C10.8596 11.7582 10.8596 11.7721 10.8596 11.786C10.8546 12.1063 10.9583 12.503 10.8114 12.7235C10.6865 12.911 10.273 12.898 9.98572 12.9684C9.22264 13.1553 8.66538 13.9067 8.68543 14.7257C8.70672 15.5814 9.28774 16.2891 10.0906 16.4368C10.9386 16.5926 11.7313 16.1577 12.0164 15.3333C12.1182 15.039 12.1537 14.707 12.1549 14.3918C12.1651 11.6032 12.1605 8.8144 12.1611 6.02587C12.1611 5.48096 12.1734 5.46987 12.7147 5.46829C13.1355 5.46702 13.557 5.47621 13.9776 5.46544C14.2408 5.45878 14.3827 5.55604 14.4071 5.83959C14.5151 7.09636 15.413 8.26094 16.8982 8.3734C17.128 8.39083 17.2336 8.51153 17.2289 8.75452C17.2206 9.18665 17.22 9.61909 17.2289 10.0512C17.2351 10.3452 17.1037 10.4371 16.8284 10.4288L16.8281 10.4285Z" fill="white"/>
</svg>
