<svg width="1440" height="395" viewBox="0 0 1440 395" fill="none" xmlns="http://www.w3.org/2000/svg">
<path d="M1440 169.33C1440 169.33 1440 169.837 1439.93 170.587V121.361C1437.09 120.345 1436.93 116.891 1436.25 114.607C1435.53 112.233 1436.96 109.738 1437.91 110.096C1438.44 110.295 1439.16 113.247 1439.93 115.85V107.271C1437.99 106.77 1436.4 105.764 1435.89 104.752C1435.24 103.445 1438.16 104.72 1439.93 105.125V97.9539C1438.55 98.7213 1437.27 99.2502 1436.48 99.1627C1434.34 98.9281 1435.65 96.3136 1437.08 95.3613C1437.68 94.9596 1438.8 94.9656 1439.94 95.0034V87.661C1438.08 88.9871 1436.26 89.9136 1435.3 89.6591C1433.04 89.0646 1435.3 81.8196 1434.58 80.2768C1433.88 78.7339 1435.06 73.7435 1436.6 72.316C1438.15 70.8905 1438.74 73.3857 1439.33 74.9285C1439.46 75.2685 1439.68 75.3639 1439.94 75.3122V66.1367C1439.6 65.8882 1439.37 65.6794 1439.33 65.5422C1439.3 65.407 1439.54 65.3414 1439.94 65.3156V56.9631C1438.04 58.9195 1435.42 64.5978 1433.64 65.5422C1431.62 66.6139 1433.64 61.6235 1433.52 59.9613C1433.44 58.8241 1437.62 53.8118 1439.94 50.1038V46.2288C1438.02 47.3422 1434.97 51.261 1433.99 51.1695C1432.69 51.0522 1433.75 43.8072 1433.16 42.2643C1432.57 40.7195 1431.26 38.5822 1430.07 38.4649C1428.89 38.3456 1429.48 52.4797 1429.24 54.3804C1429.01 56.2792 1423.43 45.2347 1422.59 48.3224C1421.76 51.4121 1426.99 55.5674 1428.53 58.4185C1430.07 61.2696 1429.48 68.9898 1428.17 68.8744C1426.87 68.7532 1426.27 65.1903 1425.32 58.8956C1424.37 52.601 1421.88 57.1142 1421.76 59.2555C1421.64 61.3928 1417.73 56.9969 1414.76 57.9513C1411.79 58.8996 1418.2 64.9557 1418.91 66.6178C1419.62 68.2839 1416.42 70.5406 1417.49 72.2007C1418.56 73.8648 1423.42 68.7571 1425.44 70.302C1427.46 71.8448 1429.83 79.8016 1429 80.8732C1428.17 81.9409 1425.92 73.9821 1424.37 71.4889C1422.83 68.9937 1422.12 75.4077 1421.76 76.4753C1421.4 77.547 1416.18 73.9821 1416.42 75.6482C1416.65 77.3104 1424.61 84.792 1427.58 87.1679C1430.54 89.5438 1429 91.2079 1428.41 91.4465C1427.81 91.6811 1421.28 85.2691 1421.05 83.1298C1420.81 80.9925 1417.37 82.5354 1415.83 83.8416C1414.28 85.1499 1402.88 76.0041 1402.41 78.378C1401.93 80.7539 1407.28 83.9589 1407.28 84.9113C1407.28 85.8596 1401.46 86.4541 1403 87.8797C1404.55 89.3072 1407.4 88.4741 1407.4 89.6571C1407.4 90.85 1407.99 91.3272 1409.53 92.7567C1411.07 94.1763 1408.58 95.1247 1405.85 95.1247C1403.12 95.1247 1404.9 98.6915 1406.21 99.3993C1407.51 100.113 1409.3 98.2143 1411.31 98.5404C1413.33 98.8645 1414.87 100.59 1414.87 100.59L1415.83 99.8765C1416.77 99.1647 1419.62 97.6199 1419.98 99.282C1420.33 100.946 1417.13 103.797 1418.91 103.797C1420.69 103.797 1422.47 102.37 1422.12 104.392C1421.76 106.412 1424.01 105.461 1424.96 104.984C1425.92 104.511 1426.86 106.173 1427.93 104.153C1429 102.135 1430.9 105.94 1431.14 107.724C1431.37 109.505 1425.91 109.026 1421.4 108.672C1416.89 108.316 1413.09 106.891 1410.84 105.465C1408.58 104.04 1405.38 103.686 1405.85 104.756C1406.33 105.825 1410.25 109.028 1405.61 107.962C1400.99 106.893 1392.79 100.837 1392.32 102.262C1391.85 103.686 1391.85 105.706 1388.05 106.062C1384.25 106.422 1383.54 107.962 1386.03 110.1C1388.52 112.237 1397.07 111.171 1395.88 111.766C1394.7 112.36 1391.49 114.969 1394.34 115.921C1397.19 116.872 1400.27 112.237 1402.53 111.261C1404.79 110.289 1400.04 113.543 1398.97 115.446C1397.9 117.345 1399.68 115.565 1399.92 116.987C1400.15 118.414 1402.05 120.788 1403.12 119.363C1404.19 117.935 1413.09 114.496 1412.03 115.798C1410.95 117.104 1405.61 121.619 1407.28 121.975C1408.94 122.333 1412.62 118.651 1412.14 120.43C1411.67 122.212 1413.57 122.806 1414.64 121.5C1415.7 120.196 1416.77 119.719 1419.15 119.48C1421.52 119.246 1428.41 113.897 1428.77 111.879C1429.12 109.859 1430.66 113.183 1430.9 115.917C1431.14 118.651 1415.59 127.447 1414.04 127.564C1412.5 127.681 1403 121.862 1402.53 123.051C1402.05 124.238 1405.5 128.513 1403.95 127.326C1402.41 126.137 1396.95 124.596 1395.05 124.715C1393.16 124.83 1394.58 127.445 1391.37 127.918C1388.17 128.395 1387.81 126.258 1386.15 128.395C1384.49 130.533 1386.62 130.533 1387.93 130.65C1389.23 130.771 1386.98 133.62 1389.83 133.62C1392.68 133.62 1391.01 135.877 1392.79 135.877C1394.57 135.877 1394.1 138.728 1395.29 139.086C1396.48 139.442 1396.83 135.4 1399.44 138.33C1402.05 141.263 1402.05 140.865 1403.48 140.507C1404.9 140.151 1406.92 143.599 1406.92 143.599L1409.3 143.834C1411.67 144.072 1412.5 141.933 1414.28 141.102C1416.06 140.269 1415.35 143.834 1417.37 142.766C1419.39 141.696 1432.21 136.943 1431.73 138.728C1431.26 140.509 1416.18 145.975 1409.65 146.212C1403.12 146.45 1402.17 141.225 1401.58 142.412C1400.99 143.601 1399.44 142.651 1397.55 141.456C1395.65 140.259 1393.39 143.007 1391.49 142.058C1389.59 141.104 1387.69 141.104 1389.83 143.364C1391.96 145.619 1392.32 149.902 1391.13 149.902C1389.94 149.902 1388.05 147.764 1385.08 146.219C1382.11 144.679 1383.89 147.764 1383.85 149.19C1383.83 149.955 1380.84 149.184 1378.13 148.687C1378.57 148.251 1378.67 147.899 1377.91 147.74C1375.56 147.245 1374.69 142.903 1372.83 142.903C1370.97 142.903 1369.11 146.251 1366.13 148.981C1363.16 151.711 1370.84 151.337 1369.6 153.073C1368.36 154.81 1361.3 155.554 1362.17 157.415C1362.33 157.757 1362.7 157.998 1363.18 158.176C1360.75 159.163 1358.09 160.403 1357.28 160.314C1355.75 160.145 1357.53 157.858 1358.61 155.486C1359.68 153.115 1358.89 153.453 1357.28 154.296C1355.67 155.146 1359.73 151.248 1358.29 150.148C1356.85 149.047 1345.51 157.433 1343.98 156.329C1342.46 155.23 1353.72 148.707 1352.87 147.265C1352.03 145.824 1347.54 150.146 1346.95 149.047C1346.35 147.943 1354.23 142.354 1353.47 140.913C1352.71 139.47 1343.22 147.605 1341.78 146.675C1340.34 145.744 1347.45 138.034 1349.02 135.917C1350.59 133.801 1349.07 134.223 1348.3 133.801C1347.54 133.376 1350.25 129.564 1348.3 128.461C1346.35 127.361 1343.22 138.797 1341.7 138.797C1340.18 138.797 1342.21 123.886 1341.28 122.109C1340.35 120.331 1339.67 122.618 1339.24 126.005C1338.82 129.395 1339.24 127.188 1337.63 127.612C1336.02 128.037 1337.8 135.237 1336.78 136.426C1335.77 137.609 1331.28 129.479 1329.76 130.497C1328.23 131.511 1331.79 135.748 1334.59 138.71C1337.38 141.676 1332.64 138.627 1329 137.273C1325.36 135.913 1328.24 140.064 1330.27 141.833C1332.3 143.601 1331.96 145.657 1328.91 142.776C1325.87 139.895 1326.46 144.301 1328.06 146.844C1329.68 149.385 1330.35 151.84 1328.75 151.757C1327.13 151.671 1323.32 149.299 1322.23 150.315C1321.12 151.333 1324.68 154.805 1324 154.469C1323.33 154.129 1322.06 153.449 1322.73 154.89C1323.41 156.329 1321.12 155.23 1319.6 156.755C1318.08 158.282 1323.83 162.936 1321.46 162.26C1320.96 162.117 1320.44 161.849 1319.89 161.537C1318.29 158.507 1316.49 156.009 1315.1 155.932C1314.1 155.876 1313.43 157.025 1312.85 158.626C1310.32 158.761 1311.01 159.463 1312.23 160.519C1311.62 162.491 1311 164.676 1310.05 166.187C1309.59 166.07 1309 165.996 1308.37 165.923C1306.73 165.728 1306.73 163.99 1305.67 163.215C1304.61 162.443 1300.26 162.443 1299.58 161.863C1298.91 161.284 1301.13 158.576 1299.49 158.19C1297.84 157.803 1294.95 160.314 1293.31 160.511C1291.67 160.703 1290.79 162.731 1288.38 163.119C1285.96 163.505 1286.54 160.992 1284.13 160.992C1281.71 160.992 1279.4 159.831 1278.81 158.674C1278.24 157.512 1281.14 158.866 1282.49 159.055C1283.84 159.252 1287.32 160.218 1289.54 160.218C1291.76 160.218 1292.82 158.864 1294.37 157.996C1295.91 157.125 1293.41 157.125 1293.6 156.061C1293.79 154.999 1297.46 155.19 1298.23 153.838C1299.01 152.486 1292.63 153.162 1292.15 151.713C1291.67 150.263 1288.58 148.717 1287.13 149.78C1285.68 150.842 1281.04 154.319 1279.3 154.127C1277.56 153.934 1278.63 151.808 1279.78 151.033C1280.94 150.261 1284.42 151.323 1284.9 150.261C1285.39 149.198 1285.96 149.585 1286.26 148.906C1286.54 148.232 1287.42 147.07 1288.19 147.651C1288.96 148.232 1291.96 149.391 1293.11 148.617C1294.27 147.842 1296.01 150.357 1296.4 149.679C1296.78 149.003 1301.52 146.776 1301.61 145.52C1301.71 144.263 1297.07 144.456 1296.4 143.394C1295.72 142.333 1300.07 139.625 1300.65 138.465C1301.23 137.306 1297.56 137.404 1295.72 137.306C1293.89 137.211 1299.2 132.473 1298.04 131.218C1296.88 129.96 1293.69 136.145 1291.57 134.406C1289.46 132.668 1287.71 138.271 1286.74 140.205C1285.77 142.138 1280.17 146.874 1278.34 146.39C1276.5 145.907 1278.34 140.01 1277.76 138.756C1277.18 137.499 1278.14 133.439 1279.4 132.278C1280.65 131.119 1281.14 133.149 1281.62 134.404C1282.1 135.66 1283.94 132.954 1284.71 132.568C1285.49 132.183 1288 133.63 1288.48 132.181C1288.96 130.731 1281.81 127.542 1281.62 126.767C1281.43 125.993 1291.38 127.831 1291.57 126.381C1291.77 124.932 1287.13 124.063 1286.65 123.29C1286.16 122.514 1291.38 120.774 1290.9 119.037C1290.41 117.297 1284.62 121.741 1283.34 122.226C1282.06 122.709 1284.23 118.554 1282.69 119.327C1281.14 120.1 1278.63 125.898 1276.98 126.767C1275.34 127.638 1276.98 123.578 1276.89 122.226C1276.79 120.87 1284.13 112.752 1283.26 111.112C1282.39 109.47 1278.34 115.172 1277.27 115.072C1276.21 114.977 1277.08 109.08 1276.6 107.823C1276.12 106.567 1275.06 104.827 1274.09 104.732C1273.12 104.634 1273.6 116.134 1273.41 117.683C1273.22 119.228 1268.68 110.241 1268 112.754C1267.32 115.269 1271.58 118.651 1272.83 120.969C1274.09 123.29 1273.6 129.572 1272.54 129.477C1271.48 129.377 1270.99 126.479 1270.22 121.357C1269.45 116.235 1267.42 119.908 1267.32 121.647C1267.23 123.387 1264.04 119.81 1261.62 120.586C1259.21 121.359 1264.43 126.286 1265 127.64C1265.59 128.996 1262.98 130.829 1263.85 132.181C1264.72 133.535 1268.68 129.379 1270.32 130.636C1271.96 131.892 1273.89 138.368 1273.22 139.239C1272.54 140.108 1270.71 133.632 1269.45 131.602C1268.19 129.572 1267.61 134.791 1267.32 135.66C1267.03 136.531 1262.78 133.63 1262.98 134.986C1263.17 136.34 1269.64 142.426 1272.06 144.36C1274.47 146.295 1273.21 147.647 1272.73 147.842C1272.25 148.035 1266.94 142.816 1266.74 141.076C1266.55 139.336 1263.75 140.593 1262.49 141.657C1261.24 142.72 1251.96 135.278 1251.58 137.211C1251.19 139.145 1255.53 141.752 1255.53 142.527C1255.53 143.299 1250.8 143.784 1252.06 144.943C1253.32 146.104 1255.63 145.426 1255.63 146.392C1255.63 147.359 1256.11 147.75 1257.37 148.913C1258.63 150.069 1256.6 150.842 1254.38 150.842C1252.16 150.842 1253.6 153.745 1254.66 154.321C1255.73 154.902 1257.18 153.357 1258.82 153.622C1260.46 153.886 1261.72 155.29 1261.72 155.29L1262.49 154.709C1263.26 154.129 1265.58 152.872 1265.87 154.226C1265.97 154.681 1265.73 155.246 1265.44 155.795C1265.21 155.433 1264.97 155.22 1264.68 155.268C1263.24 155.508 1262.67 158.093 1262.03 160.88C1260.57 160.411 1259.35 159.833 1258.43 159.254C1256.6 158.095 1253.99 157.805 1254.38 158.676C1254.76 159.546 1257.95 162.153 1254.18 161.284C1253.73 161.179 1253.23 161.012 1252.7 160.805C1251.8 159.121 1250.87 158.463 1251.12 156.92C1251.45 154.936 1251.62 151.462 1249.14 148.816C1246.66 146.172 1245.17 136.249 1242.52 135.752C1239.88 135.255 1243.02 148.651 1240.21 151.794C1237.4 154.936 1234.43 157.582 1233.27 160.23C1232.11 162.875 1230.95 156.425 1228.14 154.773C1225.33 153.117 1227.48 161.387 1224.67 164.529C1221.86 167.672 1219.22 169.986 1219.55 172.488C1219.88 174.985 1222.19 177.925 1219.55 181.894C1216.9 185.864 1215.41 186.526 1217.23 190C1219.05 193.473 1217.23 194.465 1214.75 196.946C1212.27 199.428 1212.11 201.245 1214.59 203.561C1217.07 205.877 1215.08 207.53 1212.6 210.176C1210.13 212.824 1209.13 216.461 1207.81 220.926C1206.49 225.392 1202.02 220.266 1200.7 215.966C1199.38 211.673 1197.9 209.194 1197.56 213.299C1196.9 213.283 1196.09 214.999 1195.3 216.755C1194.6 217.071 1193.78 217.206 1192.87 217.166C1192.96 214.085 1193.36 209.774 1192.97 209.013C1192.33 207.804 1191.87 209.361 1191.58 211.663C1191.29 213.967 1191.58 212.466 1190.49 212.755C1189.8 212.936 1190.02 214.93 1190.11 216.59C1189.73 216.453 1189.35 216.315 1188.96 216.131C1184.83 214.146 1189.13 210.176 1191.44 207.2C1193.76 204.221 1194.42 206.372 1191.44 202.901C1188.47 199.428 1186.98 200.253 1186.15 196.614C1185.33 192.978 1186.48 192.978 1183.51 191.984C1180.53 190.992 1182.68 189.008 1186.65 187.848C1190.62 186.693 1184.83 184.375 1183.01 183.383C1181.2 182.391 1181.69 180.407 1179.38 180.902C1177.06 181.399 1178.39 174.619 1178.22 171.476C1178.05 168.336 1175.58 157.914 1176.23 163.372C1176.89 168.829 1166.65 179.414 1167.64 180.902C1168.63 182.391 1171.61 182.061 1169.47 184.375C1167.33 186.693 1164.5 186.856 1167.48 189.338C1170.45 191.819 1169.79 196.119 1167.48 196.946C1165.16 197.772 1163.84 202.734 1161.03 201.245C1158.22 199.756 1161.19 195.787 1161.03 193.638C1160.86 191.489 1160.7 190.497 1157.56 187.848C1154.42 185.206 1157.56 184.047 1157.56 182.061C1157.56 180.075 1155.41 177.925 1153.42 176.768C1151.44 175.611 1152.93 166.68 1150.78 167.01C1148.63 167.344 1147.31 174.452 1144.83 177.76C1142.35 181.069 1143.18 181.894 1143.84 184.375C1144.5 186.856 1143.67 188.512 1142.18 191.819C1140.7 195.129 1141.19 194.962 1142.35 196.779C1143.5 198.601 1143.34 203.726 1142.35 206.87C1141.36 210.009 1138.05 207.035 1138.05 205.38C1138.05 203.726 1139.54 201.245 1137.22 200.585C1134.91 199.923 1133.59 197.772 1134.58 195.622C1135.57 193.473 1136.07 193.473 1134.58 190.165C1133.09 186.856 1129.29 187.353 1128.63 184.542C1127.96 181.729 1133.59 181.731 1133.42 179.084C1133.26 176.436 1129.95 173.627 1128.3 172.488C1126.65 171.348 1127.14 167.177 1127.14 163.207C1127.14 159.236 1124.33 154.938 1122.84 155.93C1121.35 156.922 1122.02 167.342 1119.04 168.169C1116.06 168.994 1116.72 165.193 1114.74 163.537C1112.76 161.884 1111.6 156.262 1107.8 157.749C1104 159.238 1104.82 163.207 1105.32 165.521C1105.81 167.839 1098.87 168.499 1096.23 169.161C1093.58 169.819 1096.89 171.311 1099.04 173.46C1101.19 175.611 1097.88 179.084 1098.21 182.558C1098.54 186.031 1096.89 186.691 1093.75 189.668C1090.61 192.646 1089.28 194.133 1088.13 196.284C1086.97 198.436 1085.48 201.245 1083.66 201.08C1081.85 200.915 1082.51 196.614 1080.85 196.449C1079.2 196.284 1079.53 201.412 1076.89 201.742C1074.24 202.074 1076.06 195.622 1073.41 194.962C1070.77 194.298 1068.95 193.306 1064.16 191.819C1059.36 190.33 1064.98 187.848 1065.15 186.359C1065.31 184.872 1068.46 182.723 1068.12 180.407C1067.79 178.092 1067.46 174.619 1065.48 173.627C1063.5 172.635 1063.99 167.177 1062.5 165.688C1061.02 164.199 1063 159.071 1061.02 158.411C1059.03 157.749 1058.87 149.48 1057.21 149.643C1055.56 149.81 1057.88 157.914 1054.57 158.741C1051.26 159.568 1054.57 166.68 1051.76 167.342C1048.95 168.002 1051.76 177.096 1048.95 176.933C1046.14 176.766 1049.45 182.888 1047.3 183.216C1045.15 183.546 1044.16 188.345 1041.18 189.004C1038.2 189.668 1039.03 183.546 1036.72 183.049C1034.4 182.554 1034.4 188.674 1032.09 188.841C1029.78 189.006 1031.1 183.383 1028.78 183.383C1026.47 183.383 1027.3 178.422 1024.48 178.255C1021.67 178.088 1022.5 184.872 1022.67 188.508C1022.83 192.147 1023.16 192.811 1020.35 194.461C1017.54 196.117 1016.22 198.597 1013.74 198.597C1011.26 198.597 1014.4 194.461 1011.26 193.636C1008.12 192.811 1007.95 189.338 1006.63 187.514C1005.31 185.697 1007.13 182.554 1003.99 181.399C1000.85 180.24 1000.68 175.444 999.192 175.607C997.703 175.774 999.027 180.073 996.879 182.391C994.731 184.705 994.896 188.674 993.077 190.825C991.257 192.976 993.572 198.269 991.754 199.094C989.933 199.919 990.472 204.677 990.224 210.506C989.975 216.337 987.372 213.359 983.652 213.359C979.932 213.359 979.685 210.257 977.08 210.257C974.475 210.257 972.243 215.84 971.128 213.608C970.014 211.375 967.78 210.009 966.294 207.281C964.805 204.551 961.705 208.273 958.233 208.273C954.762 208.273 956.622 212.615 955.505 215.343C954.388 218.073 952.902 212.987 951.042 212.615C949.182 212.242 950.173 205.669 947.942 206.166C945.71 206.661 945.958 211.872 944.222 205.295C942.487 198.72 940.752 203.684 938.89 209.639C937.032 215.592 934.301 211.375 932.567 211.126C930.832 210.878 931.078 214.973 928.475 215.469C925.87 215.966 925.746 206.661 923.886 206.042C922.026 205.422 922.772 211.252 919.298 209.888C915.826 208.526 919.298 201.577 917.44 201.08C915.578 200.585 917.317 184.582 913.098 185.574C908.883 186.566 910.989 203.436 909.38 204.925C907.768 206.412 907.396 211.003 904.668 211.252C901.94 211.5 902.313 202.569 902.065 199.096C901.818 195.622 904.545 191.28 902.065 190.908C899.587 190.538 899.461 182.101 898.098 180.613C896.733 179.124 896.733 188.304 895.37 190.536C894.009 192.769 891.03 194.879 891.403 198.722C891.777 202.569 894.752 203.684 894.255 206.661C893.76 209.639 891.28 211.872 890.785 213.359C890.288 214.848 891.157 217.95 892.894 219.934C894.629 221.92 893.553 227.048 890.909 228.7C888.266 230.354 889.917 221.423 887.602 218.117C885.287 214.81 881.652 214.148 879.339 212.824C877.026 211.5 877.684 193.97 875.041 193.308C872.396 192.648 870.412 185.699 867.106 185.039C863.799 184.377 866.197 188.097 866.857 191.405C867.517 194.714 865.784 196.863 863.137 198.352C861.681 199.171 858.332 200.507 858.922 203.561C859.403 206.05 854.459 212.492 858.922 213.236C861.861 213.727 855.367 222.085 853.054 222.912C850.743 223.739 851.895 230.189 848.591 230.189C847.643 230.189 846.78 229.623 846.025 228.783C847.474 227.455 849.877 225.503 849.4 224.656C849.01 223.962 846.588 224.91 844.215 225.899C843.424 224.169 842.969 222.393 842.969 221.59C842.969 220.499 842.24 219.483 840.706 219.151C840.87 218.65 840.87 218.198 840.517 217.93C839.972 217.512 837.909 218.546 835.553 219.858C833.683 220.222 833.003 219.423 832.413 218.475C834.225 217.045 835.71 215.749 835.394 215.208C834.829 214.246 832.546 215.999 831.058 216.745C830.911 216.636 830.754 216.538 830.571 216.461C830.31 216.349 830.084 216.353 829.875 216.429C830.708 214.785 836.602 210.422 835.956 209.202C835.237 207.84 826.272 215.53 824.911 214.647C823.548 213.769 830.273 206.482 831.753 204.48C833.232 202.478 831.793 202.879 831.073 202.478C830.35 202.076 832.914 198.473 831.073 197.432C829.231 196.392 826.27 207.202 824.83 207.202C823.389 207.202 825.307 193.107 824.428 191.427C823.548 189.747 822.908 191.906 822.507 195.111C822.107 198.314 822.507 196.229 820.988 196.63C819.464 197.032 821.147 203.838 820.188 204.959C819.226 206.076 814.985 198.392 813.544 199.354C812.104 200.312 815.464 204.317 818.107 207.118C820.748 209.921 816.263 207.039 812.825 205.758C809.383 204.474 812.105 208.398 814.023 210.071C815.949 211.741 815.627 213.683 812.745 210.959C809.866 208.237 810.422 212.401 811.945 214.804C813.465 217.206 814.105 219.528 812.584 219.447C811.062 219.367 807.463 217.125 806.422 218.087C805.381 219.045 808.743 222.33 808.103 222.012C807.463 221.69 806.261 221.047 806.903 222.409C807.541 223.771 805.379 222.731 803.94 224.173C802.499 225.616 807.942 230.014 805.703 229.376C803.461 228.736 800.9 225.773 797.621 225.932C794.34 226.091 796.581 227.217 798.179 228.817C799.783 230.418 801.299 231.619 802.742 232.66C804.182 233.7 806.664 235.06 806.263 236.345C805.864 237.623 801.782 233.541 801.14 234.983C800.502 236.424 802.424 239.307 800.502 239.307C798.58 239.307 792.581 235.863 792.098 237.144C791.619 238.424 798.179 242.265 798.501 243.309C798.821 244.349 785.214 243.069 786.015 245.069C786.816 247.071 793.7 246.671 794.743 246.431C795.783 246.192 800.985 248.996 800.824 250.435C800.665 251.876 795.463 251.397 793.221 251.719C790.979 252.041 791.301 252.6 791.059 254.441C791.019 254.741 791.083 255.046 791.184 255.348C791.14 255.348 791.111 255.33 791.061 255.332C788.086 255.499 789.572 247.395 788.251 246.731C787.174 246.192 786.425 251.467 785.113 253.89C784.893 253.914 784.704 253.998 784.577 254.201C784.465 254.378 784.441 254.574 784.449 254.783C784.342 254.877 784.233 254.954 784.118 255.002C782.945 255.491 783.04 258.861 782.701 261.646C779.412 261.662 776.133 261.829 776.093 263.006C776.057 263.999 778.681 264.45 781.87 264.633C781.602 265.05 781.264 265.343 780.811 265.42C777.836 265.917 776.844 269.225 774.696 272.864C772.842 276.005 770.865 274.705 769.72 272.908C769.655 272.768 769.585 272.635 769.504 272.524C768.941 271.752 771.393 271.896 771.954 271.122C772.514 270.351 770.761 271.544 770.761 270.492C770.761 269.44 776.014 267.199 776.435 266.496C776.856 265.796 774.122 266.639 773.281 266.007C772.441 265.376 771.6 265.516 771.6 265.516L770.551 265.585C769.502 265.655 771.109 263.553 770.13 263.482C769.732 263.454 768.633 263.782 767.375 264.165C766.551 262.159 766.012 259.183 765.601 257.642C764.939 255.163 772.214 254.666 772.214 253.014C772.214 251.888 770.374 251.821 768.212 251.226C768.742 250.538 771.038 251.189 772.441 250.091C774.05 248.831 770.199 249.811 767.397 249.6C764.595 249.391 768.097 248.759 767.888 247.99C767.707 247.325 766.284 248.781 764.865 249.739C764.333 249.435 763.826 249.334 763.341 249.393C763.425 249.228 763.516 249.059 763.615 248.9C764.174 247.99 763.125 248.62 762.284 248.831C761.441 249.039 763.683 246.236 762.284 247.147C760.881 248.057 755.277 249.948 753.037 249.387C752.974 249.371 752.9 249.343 752.833 249.326C752.863 249.242 752.888 249.157 752.873 249.045C752.63 247.327 748.934 246.156 746.094 244.993C745.768 243.965 748.081 244.46 748.972 245.675C749.955 247.007 750.796 246.586 750.514 245.886C750.231 245.184 750.375 243.222 752.475 245.395C754.576 247.568 755.275 246.166 754.927 244.693C754.574 243.222 754.856 241.82 756.748 243.852C758.639 245.886 761.791 245.254 760.672 244.693C759.552 244.132 757.729 241.959 759.2 241.959C760.67 241.959 762.636 244.272 762.636 244.272L764.245 244.063C765.857 243.852 762.842 243.083 762.914 242.452C762.983 241.82 765.646 242.17 766.207 241.399C766.765 240.627 763.051 240.558 765.784 240.277C768.516 239.995 769.428 238.315 768.027 238.104C766.626 237.893 765.225 238.174 765.158 236.49C765.086 234.808 759.903 237.822 758.57 238.243C757.24 238.663 757.66 237.192 757.799 236.701C757.94 236.211 757.66 235.018 756.118 235.79C754.576 236.563 754.434 235.368 753.948 234.179C753.457 232.987 750.373 236.913 748.55 237.052C747.326 237.146 746.221 236.883 745.401 236.535C745.778 235.852 746.305 235.044 745.931 233.167C745.889 232.955 745.828 232.774 745.776 232.577C747.054 232.875 746.804 231.211 746.871 230.392C746.941 229.551 747.781 228.569 748.833 230.322C749.882 232.076 752.686 233.547 752.686 232.776C752.686 232.004 753.455 230.112 754.154 230.603C754.854 231.092 756.889 231.513 758.427 231.02C759.967 230.531 760.531 230.32 761.159 229.621C761.789 228.921 760.74 228.78 759.55 228.64C758.355 228.499 758.355 227.239 757.586 226.676C756.815 226.117 753.663 226.117 753.173 225.696C752.684 225.276 754.295 223.312 753.101 223.034C751.911 222.751 749.81 224.572 748.618 224.716C747.428 224.855 746.798 226.328 745.045 226.608C744.443 226.704 744.103 226.545 743.837 226.302C744.351 225.714 744.902 225.052 744.985 224.445C745.301 224.481 745.609 224.505 745.885 224.505C747.499 224.505 748.27 223.523 749.389 222.89C750.512 222.26 748.689 222.26 748.831 221.489C748.968 220.717 751.633 220.859 752.191 219.876C752.751 218.896 748.129 219.385 747.777 218.333C747.539 217.616 746.42 216.88 745.399 216.723C745.101 216.262 744.689 215.81 744.194 215.419C744.419 215.268 744.667 215.214 744.904 215.391C745.464 215.812 747.636 216.653 748.477 216.091C749.319 215.53 750.581 217.353 750.862 216.862C751.14 216.371 754.57 214.755 754.641 213.844C754.713 212.934 751.348 213.073 750.862 212.303C750.369 211.532 753.52 209.57 753.944 208.729C754.361 207.887 751.7 207.957 750.369 207.887C749.037 207.818 752.888 204.382 752.05 203.472C751.209 202.559 748.898 207.044 747.362 205.782C745.824 204.521 744.554 208.585 743.855 209.989C743.505 210.687 742.32 211.89 741.057 212.878C740.19 211.753 739.475 210.371 737.99 208.689C737.682 208.341 737.432 208.12 737.221 208.001C737.267 206.746 737.835 204.883 738.531 204.239C739.441 203.398 739.793 204.869 740.14 205.78C740.492 206.691 741.824 204.73 742.384 204.45C742.942 204.17 744.765 205.221 745.115 204.168C745.466 203.118 740.28 200.804 740.14 200.241C740.003 199.68 747.217 201.012 747.358 199.961C747.497 198.909 744.135 198.279 743.785 197.718C743.433 197.157 747.217 195.895 746.867 194.634C746.515 193.372 742.312 196.595 741.384 196.946C740.454 197.296 742.032 194.282 740.911 194.843C739.793 195.402 737.97 199.607 736.778 200.239C735.588 200.871 736.778 197.927 736.711 196.946C736.639 195.962 741.963 190.075 741.333 188.884C740.703 187.693 737.76 191.831 736.991 191.757C736.22 191.688 736.85 187.411 736.5 186.5C736.15 185.588 735.379 184.325 734.678 184.258C733.978 184.188 734.328 192.527 734.189 193.65C734.048 194.773 730.757 188.252 730.264 190.075C729.773 191.898 732.857 194.35 733.769 196.032C734.678 197.716 734.328 202.273 733.557 202.203C732.786 202.132 732.436 200.03 731.876 196.314C731.317 192.6 729.845 195.264 729.771 196.527C729.702 197.789 727.388 195.195 725.638 195.755C723.887 196.316 727.671 199.891 728.09 200.871C728.511 201.855 726.619 203.185 727.249 204.166C727.879 205.146 730.753 202.132 731.943 203.042C733.136 203.955 734.534 208.649 734.044 209.283C733.555 209.911 732.223 205.215 731.315 203.746C730.403 202.275 729.98 206.056 729.771 206.687C729.563 207.319 726.48 205.215 726.619 206.2C726.759 207.178 731.438 211.58 733.197 212.989C732.698 213.248 732.194 213.53 731.697 213.85C730.59 212.711 729.427 211.299 729.352 210.615C729.213 209.353 727.178 210.263 726.27 211.037C725.358 211.808 718.633 206.41 718.353 207.812C718.072 209.214 721.224 211.104 721.224 211.667C721.224 212.226 717.792 212.578 718.7 213.419C719.613 214.262 721.294 213.769 721.294 214.468C721.294 215.168 721.645 215.453 722.556 216.296C723.468 217.135 721.997 217.693 720.384 217.693C718.77 217.693 719.823 219.801 720.592 220.216C721.363 220.638 722.415 219.516 723.607 219.709C724.799 219.902 725.711 220.918 725.711 220.918L726.27 220.497C726.828 220.075 728.511 219.165 728.72 220.147C728.931 221.127 727.039 222.811 728.09 222.811C729.141 222.811 730.191 221.968 729.98 223.161C729.922 223.487 729.986 223.674 730.111 223.779C729.378 224.308 728.678 224.861 728.533 225.545C726.333 225.227 724.477 224.525 723.327 223.795C721.995 222.954 720.105 222.745 720.384 223.376C720.666 224.006 722.977 225.897 720.242 225.268C717.512 224.638 712.677 221.063 712.399 221.904C712.121 222.741 712.115 223.922 709.907 224.141C709.603 223.368 709.15 222.857 708.397 222.904C705.752 223.067 707.073 230.014 704.593 231.006C702.113 231.998 704.593 238.615 702.775 239.937C700.959 241.261 700.46 247.546 698.312 247.876C696.163 248.208 695.005 246.552 693.848 245.065C692.692 243.576 692.857 239.607 691.533 237.458C690.212 235.307 692.362 233.156 689.715 233.156C687.068 233.156 686.078 242.254 684.26 242.419C682.442 242.584 681.78 251.515 678.308 251.847C674.837 252.177 676.987 261.273 673.845 261.935C670.703 262.595 673.348 255.155 672.027 253.499C671.981 253.441 671.953 253.368 671.913 253.304C673.062 253.843 674.268 254.39 675.218 254.535C677.73 254.918 674.252 252.698 674.155 250.862C674.058 249.023 677.919 250.477 680.144 248.735C682.366 246.995 677.052 248.349 673.189 248.057C669.326 247.767 674.155 246.898 673.863 245.836C673.686 245.184 672.637 246.023 671.341 247.033C671.353 246.753 671.365 246.48 671.365 246.222C671.365 243.908 670.54 241.756 669.549 240.1C669.237 239.579 669.042 238.637 668.867 237.563C669.936 237.436 671.14 237.305 671.548 236.746C672.321 235.685 667.198 235.587 670.965 235.201C674.733 234.816 675.989 232.497 674.058 232.207C672.126 231.917 670.194 232.303 670.097 229.982C670 227.662 662.85 231.817 661.018 232.398C659.183 232.979 659.76 230.951 659.952 230.273C660.145 229.597 659.76 227.952 657.633 229.016C655.509 230.08 655.314 228.436 654.641 226.793C653.987 225.207 650.008 230.183 647.473 230.704C647.612 227.676 647.928 224.201 647.896 221.898C649.51 224.117 652.902 225.857 652.902 224.857C652.902 223.793 653.963 221.183 654.929 221.863C655.896 222.537 658.696 223.117 660.821 222.437C662.945 221.763 663.718 221.475 664.591 220.507C665.461 219.542 664.01 219.347 662.369 219.153C660.725 218.958 660.725 217.22 659.662 216.445C658.601 215.673 654.253 215.673 653.577 215.093C652.904 214.514 655.123 211.806 653.48 211.421C651.839 211.033 648.941 213.544 647.3 213.741C646.851 213.792 646.461 213.987 646.082 214.244C645.799 213.792 645.495 213.419 645.165 213.16C646.386 212.717 647.252 211.852 648.361 211.226C649.907 210.355 647.395 210.355 647.588 209.291C647.781 208.229 651.453 208.42 652.224 207.068C652.997 205.716 646.622 206.392 646.139 204.943C645.855 204.092 644.671 203.221 643.449 202.851C643.341 202.386 643.109 202.026 642.6 201.899C642.169 201.79 641.845 201.354 641.571 200.746C641.773 200.7 641.98 200.73 642.181 200.881C642.954 201.462 645.948 202.621 647.107 201.847C648.266 201.072 650.004 203.587 650.394 202.909C650.777 202.233 655.511 200.006 655.61 198.75C655.708 197.493 651.069 197.686 650.394 196.624C649.718 195.563 654.062 192.855 654.644 191.696C655.223 190.536 651.552 190.634 649.718 190.536C647.882 190.441 653.194 185.703 652.035 184.449C650.877 183.19 647.689 189.375 645.571 187.636C643.451 185.898 641.7 191.501 640.736 193.435C640.549 193.807 640.189 194.284 639.72 194.803C639.432 194.25 639.087 193.863 638.635 193.793C637.688 193.648 637.352 195.328 637.06 197.271C635.251 198.712 633.284 199.871 632.33 199.621C630.496 199.137 632.33 193.24 631.75 191.986C631.17 190.729 632.135 186.669 633.391 185.508C634.647 184.349 635.13 186.379 635.611 187.634C636.096 188.89 637.932 186.184 638.705 185.799C639.478 185.413 641.988 186.86 642.473 185.411C642.956 183.961 635.808 180.772 635.613 179.997C635.422 179.224 645.37 181.061 645.565 179.611C645.758 178.162 641.12 177.293 640.639 176.52C640.156 175.744 645.37 174.005 644.889 172.267C644.406 170.527 638.61 174.971 637.33 175.456C636.048 175.939 638.224 171.784 636.678 172.557C635.132 173.331 632.62 179.128 630.977 179.997C629.335 180.868 630.977 176.808 630.881 175.456C630.786 174.1 638.127 165.982 637.256 164.342C636.386 162.7 632.33 168.402 631.267 168.302C630.204 168.207 631.072 162.31 630.591 161.053C630.108 159.797 629.047 158.057 628.079 157.962C627.116 157.864 627.597 169.364 627.404 170.913C627.211 172.458 622.67 163.471 621.993 165.984C621.319 168.499 625.568 171.881 626.823 174.199C628.077 176.52 627.596 182.802 626.533 182.707C625.47 182.607 624.987 179.709 624.214 174.587C623.441 169.465 621.412 173.138 621.317 174.877C621.22 176.617 618.03 173.04 615.616 173.816C613.201 174.589 618.418 179.516 618.996 180.87C619.576 182.226 616.969 184.059 617.837 185.411C618.708 186.765 622.668 182.609 624.312 183.866C625.953 185.123 627.883 191.598 627.209 192.469C626.533 193.338 624.697 186.862 623.441 184.832C622.183 182.802 621.605 188.021 621.317 188.89C621.025 189.761 616.774 186.86 616.969 188.216C617.162 189.57 623.634 195.656 626.048 197.591C628.463 199.525 627.207 200.877 626.722 201.072C626.239 201.265 620.925 196.046 620.735 194.306C620.542 192.566 617.74 193.823 616.484 194.887C615.228 195.95 605.954 188.508 605.568 190.441C605.181 192.376 609.529 194.982 609.529 195.757C609.529 196.529 604.795 197.014 606.051 198.173C607.307 199.334 609.626 198.656 609.626 199.623C609.626 200.589 610.109 200.98 611.365 202.144C612.621 203.299 610.594 204.072 608.37 204.072C606.146 204.072 607.597 206.975 608.66 207.551C609.723 208.132 611.172 206.587 612.814 206.852C613.098 206.895 613.362 206.983 613.618 207.084C613.008 207.601 612.317 208.094 612.082 209.174C611.862 210.186 611.506 211.027 611.122 211.848C609.576 211.261 608.072 211.23 608.372 211.906C608.758 212.776 611.945 215.383 608.177 214.514C604.41 213.643 597.745 208.717 597.359 209.876C596.973 211.035 596.974 212.679 593.881 212.969C590.791 213.26 590.211 214.514 592.24 216.254C594.269 217.994 601.224 217.125 600.258 217.61C599.291 218.093 596.683 220.218 599 220.992C601.32 221.765 603.831 217.994 605.668 217.2C607.502 216.409 603.639 219.059 602.77 220.606C601.9 222.151 603.35 220.703 603.541 221.861C603.734 223.022 605.28 224.954 606.148 223.795C606.715 223.04 609.976 221.594 611.949 220.966C611.492 222.431 609.791 223.268 608.893 225.219C608.569 225.92 608.205 226.622 607.883 227.296C606.689 226.771 605.793 226.487 605.668 226.799C605.393 227.481 606.695 229.398 607.049 230.133C607.057 230.243 607.086 230.342 607.112 230.442C607.067 230.442 606.979 230.396 606.824 230.279C605.568 229.312 601.125 228.058 599.579 228.153C598.035 228.249 599.191 230.374 596.584 230.762C593.977 231.149 593.687 229.41 592.333 231.149C590.982 232.889 592.721 232.889 593.782 232.985C594.845 233.082 593.007 235.402 595.328 235.402C597.649 235.402 596.294 237.237 597.741 237.237C599.187 237.237 598.804 239.558 599.769 239.848C600.733 240.138 601.025 236.85 603.15 239.233C605.274 241.617 605.274 241.295 606.435 241.005C606.715 240.935 607.023 241.051 607.331 241.259C606.762 241.997 606.141 242.631 605.67 243.023C605.26 242.512 605.054 242.222 604.889 242.554C604.406 243.52 603.15 242.749 601.606 241.774C600.058 240.802 598.223 243.037 596.677 242.263C595.767 241.808 594.879 241.635 594.636 241.929C593.919 240.275 593.454 237.128 592.339 237.128C590.853 237.128 589.529 245.727 586.719 246.059C583.91 246.391 587.379 236.961 586.719 236.796C586.058 236.631 585.891 240.766 584.239 241.261C582.586 241.758 582.916 234.315 582.419 231.503C581.922 228.69 580.933 237.623 580.265 242.089C579.599 246.554 578.783 247.548 579.939 248.373C581.096 249.198 578.947 259.951 576.962 260.448C574.979 260.945 574.152 252.509 572.002 251.517C569.854 250.524 573.82 248.373 573.985 246.723C574.15 245.075 574.482 239.528 572.127 239.031C569.77 238.536 569.399 231.34 568.284 231.215C567.169 231.092 566.549 225.632 565.558 224.268C564.564 222.906 564.812 229.479 563.572 229.851C562.332 230.225 562.086 235.062 560.721 235.187C559.357 235.309 559.729 244.862 557.992 244.987C556.257 245.111 556.132 238.907 555.886 236.923C555.637 234.939 552.414 234.567 552.289 230.969C552.166 227.372 549.686 224.147 549.189 222.038C548.692 219.93 547.206 219.31 544.6 217.695C541.997 216.085 542.246 211.866 542.122 210.502C541.999 209.138 542.246 205.911 540.882 205.044C539.517 204.174 539.517 202.189 539.766 199.09C540.014 195.988 537.782 195.616 537.534 194.129C537.285 192.64 537.037 186.934 535.054 186.934C533.071 186.934 533.816 193.881 531.831 193.757C529.847 193.634 531.954 199.71 530.342 199.71C528.731 199.71 530.591 203.557 528.359 203.806C526.127 204.054 527.49 213.729 525.259 213.606C523.027 213.482 522.904 217.079 521.167 217.079C519.43 217.079 517.076 215.964 514.844 215.095C512.612 214.224 512.364 212.24 512.984 210.752C513.604 209.263 513.232 207.031 511.124 206.907C509.017 206.784 510.257 200.581 510.257 199.589C510.257 198.597 509.886 192.145 508.769 191.525C507.652 190.904 506.784 189.666 505.544 184.453C504.304 179.243 503.807 185.57 502.195 185.57C500.584 185.57 502.815 191.525 499.84 191.525C496.866 191.525 495.749 194.875 494.509 194.998C493.269 195.121 492.897 198.718 491.78 199.092C490.665 199.465 489.425 205.418 489.425 204.178C489.425 202.937 488.062 196.364 485.831 196.241C483.599 196.117 484.219 187.31 482.359 186.936C480.499 186.562 480.376 192.642 480.87 194.131C481.238 195.231 480.719 197.072 479.726 198.157C478.555 197.539 475.537 197.477 475 196.63C474.325 195.569 478.669 192.861 479.251 191.702C479.829 190.542 476.159 190.64 474.325 190.542C472.488 190.447 477.8 185.709 476.642 184.455C475.483 183.196 472.296 189.381 470.177 187.642C468.057 185.904 466.306 191.507 465.342 193.441C464.375 195.374 458.773 200.11 456.936 199.627C455.102 199.143 456.936 193.246 456.356 191.992C455.776 190.735 456.742 186.675 457.998 185.514C459.253 184.355 459.736 186.385 460.217 187.64C460.702 188.896 462.538 186.19 463.311 185.805C464.084 185.419 466.594 186.866 467.079 185.417C467.562 183.967 460.414 180.778 460.219 180.003C460.028 179.23 469.977 181.067 470.171 179.617C470.364 178.168 465.726 177.299 465.245 176.526C464.762 175.75 469.976 174.011 469.496 172.273C469.013 170.533 463.216 174.977 461.936 175.462C460.654 175.945 462.83 171.79 461.284 172.563C459.738 173.337 457.227 179.134 455.583 180.003C453.942 180.874 455.583 176.814 455.488 175.462C455.392 174.106 462.733 165.988 461.863 164.348C460.992 162.706 456.936 168.408 455.873 168.308C454.81 168.213 455.679 162.316 455.198 161.059C454.715 159.803 453.654 158.063 452.686 157.968C451.722 157.87 452.203 169.37 452.01 170.919C451.817 172.464 447.277 163.477 446.599 165.99C445.925 168.505 450.174 171.887 451.43 174.205C452.684 176.526 452.203 182.808 451.14 182.713C450.077 182.613 449.594 179.715 448.821 174.593C448.048 169.471 446.019 173.144 445.923 174.883C445.826 176.623 442.636 173.046 440.222 173.822C437.807 174.595 443.024 179.522 443.602 180.876C444.182 182.232 441.575 184.065 442.444 185.417C443.314 186.771 447.275 182.615 448.918 183.872C450.559 185.129 452.489 191.604 451.815 192.475C451.14 193.344 449.303 186.868 448.048 184.838C446.79 182.808 446.211 188.027 445.923 188.896C445.631 189.767 441.38 186.866 441.575 188.222C441.768 189.576 448.24 195.662 450.655 197.597C453.069 199.531 451.813 200.883 451.328 201.078C450.846 201.271 445.532 196.052 445.341 194.312C445.148 192.572 442.346 193.829 441.09 194.893C439.834 195.956 430.56 188.514 430.175 190.447C429.787 192.382 434.135 194.988 434.135 195.763C434.135 196.535 429.402 197.02 430.657 198.179C431.913 199.34 434.232 198.662 434.232 199.628C434.232 200.595 434.715 200.986 435.971 202.15C437.227 203.305 435.2 204.078 432.977 204.078C430.753 204.078 432.204 206.981 433.267 207.557C434.33 208.138 435.779 206.593 437.42 206.858C439.061 207.122 440.319 208.526 440.319 208.526L441.092 207.945C441.863 207.365 444.184 206.108 444.473 207.462C444.763 208.816 442.155 211.136 443.602 211.136C445.049 211.136 446.5 209.975 446.209 211.619C445.921 213.262 447.755 212.49 448.528 212.1C449.303 211.715 450.075 213.067 450.943 211.424C451.813 209.782 453.357 212.878 453.552 214.329C453.745 215.777 449.302 215.389 445.629 215.101C441.959 214.81 438.869 213.651 437.034 212.492C435.2 211.333 432.591 211.043 432.977 211.914C433.362 212.784 436.55 215.391 432.782 214.522C431.222 214.16 429.167 213.105 427.263 212.073C427.084 211.162 426.88 210.395 426.562 210.007C425.445 208.643 424.455 201.324 422.347 201.324C420.238 201.324 420.858 208.396 418.378 210.255C417.258 211.096 416.652 212.413 416.167 213.631C415.747 213.926 415.606 214.305 415.72 214.749C415.326 215.725 414.937 216.482 414.287 216.582C412.675 216.83 411.187 221.173 410.195 225.513C409.203 229.855 404.492 228.986 401.515 227.125C398.54 225.264 402.383 222.908 401.515 219.805C400.648 216.703 399.78 217.077 398.54 216.58C397.3 216.085 398.788 213.604 398.54 211.619C398.292 209.635 395.068 209.756 394.943 208.394C394.82 207.031 393.58 202.191 391.843 202.191C390.106 202.191 389.735 205.665 388.246 206.162C386.76 206.657 386.015 207.774 386.14 211.496C386.263 215.218 381.18 215.59 379.32 216.087C377.462 216.582 374.485 219.063 374.236 224.769C373.988 230.475 370.145 225.143 368.782 225.143C367.418 225.143 362.955 229.485 363.166 227.376C363.378 225.266 365.807 221.173 362.335 221.047C358.863 220.924 358.987 219.312 357.872 216.83C356.755 214.349 361.84 214.349 362.832 212.862C363.823 211.373 362.583 207.774 359.483 207.156C356.383 206.536 359.36 199.465 357.5 198.843C355.64 198.223 354.028 192.89 353.657 191.028C353.285 189.169 350.062 184.701 349.194 184.701C348.325 184.701 346.093 190.779 345.227 191.648C344.849 192.026 344.73 193.274 344.613 194.63C343.532 194.431 340.164 195.018 337.489 194.815C333.626 194.525 338.455 193.656 338.163 192.594C337.874 191.531 335.265 194.429 333.045 195.59C332.596 195.825 332.292 195.921 332.056 195.952C331.734 195.586 331.658 195.252 331.712 194.93C331.851 194.586 332.054 194.205 332.272 193.851C332.427 193.6 332.473 193.453 332.469 193.35C332.737 192.759 332.815 192.105 332.084 191.274C330.842 189.864 330.591 188.29 330.232 186.733C330.645 187.151 330.919 187.467 330.919 187.467L333.141 187.176C335.363 186.886 331.209 185.822 331.307 184.956C331.402 184.085 335.074 184.568 335.847 183.502C336.62 182.44 331.497 182.343 335.265 181.957C339.035 181.572 340.289 179.253 338.357 178.963C336.426 178.673 334.494 179.059 334.397 176.738C334.299 174.418 327.149 178.573 325.317 179.154C323.483 179.735 324.059 177.707 324.252 177.029C324.445 176.353 324.059 174.708 321.933 175.772C319.809 176.836 319.614 175.192 318.94 173.549C318.662 172.875 317.78 173.394 316.665 174.249C315.61 172.895 311.941 171.545 309.088 170.221C309.183 169.587 309.139 168.839 309.183 168.328C309.278 167.169 310.439 165.815 311.888 168.233C313.338 170.648 317.201 172.678 317.201 171.615C317.201 170.551 318.263 167.941 319.228 168.621C320.196 169.295 322.996 169.875 325.12 169.195C327.245 168.521 328.018 168.233 328.89 167.265C329.761 166.3 328.31 166.105 326.668 165.911C325.025 165.716 325.025 163.978 323.962 163.203C322.901 162.431 318.553 162.431 317.877 161.851C317.203 161.272 319.423 158.564 317.78 158.178C317.35 158.077 316.832 158.178 316.275 158.381C316.289 158.345 316.329 158.312 316.335 158.278C316.502 157.445 313.881 156.556 312.098 155.725C312.915 155.015 315.844 155.021 316.524 153.828C316.989 153.015 314.872 152.936 313.004 152.685C314.016 152.236 315 151.868 315.22 151.703C315.604 151.415 316.862 149.864 316.961 148.088C318.346 147.218 319.85 146.215 319.906 145.512C320.003 144.255 315.365 144.448 314.69 143.386C314.014 142.325 318.358 139.617 318.94 138.458C319.518 137.298 315.848 137.396 314.014 137.298C312.178 137.203 317.49 132.465 316.331 131.211C315.172 129.952 311.985 136.137 309.867 134.398C307.746 132.66 305.995 138.263 305.032 140.197C304.992 140.277 304.932 140.366 304.879 140.456C304.849 140.402 304.839 140.346 304.805 140.293C303.613 138.386 302.752 136.03 300.596 134.636C301.353 134.29 302.448 132.839 303.003 132.562C303.776 132.177 306.286 133.624 306.77 132.175C307.253 130.725 300.105 127.536 299.911 126.761C299.72 125.988 309.668 127.825 309.863 126.375C310.055 124.926 305.417 124.057 304.936 123.284C304.453 122.508 309.668 120.768 309.187 119.031C308.704 117.291 302.907 121.735 301.628 122.22C300.346 122.703 302.522 118.548 300.976 119.321C299.43 120.094 296.918 125.892 295.274 126.761C293.633 127.632 295.274 123.572 295.179 122.22C295.084 120.864 302.424 112.746 301.554 111.106C300.684 109.464 296.628 115.166 295.565 115.066C294.501 114.971 295.37 109.074 294.889 107.817C294.406 106.561 293.345 104.821 292.377 104.726C291.413 104.628 291.894 116.128 291.701 117.677C291.509 119.222 286.968 110.235 286.29 112.748C285.617 115.263 289.865 118.645 291.121 120.963C292.375 123.284 291.894 129.566 290.831 129.471C289.818 129.375 289.327 126.709 288.615 122.017C288.931 121.433 288.977 120.949 288.397 120.717C287.802 117.796 286.71 118.629 286.084 119.965C284.663 118.685 284.933 115.701 283.357 115.11C281.422 114.384 278.206 118.605 279.77 120.657C278.486 121.268 280.066 123.425 281.521 125.246C279.327 127.373 277.276 127.178 276.909 129.501C276.537 131.857 279.883 131.236 280.009 132.972C280.132 134.71 277.034 136.322 278.397 137.686C279.573 138.863 280.553 140.134 279.049 141.336C275.979 139.965 270.172 135.684 269.868 137.205C269.48 139.139 273.828 141.746 273.828 142.521C273.828 143.293 269.095 143.778 270.351 144.937C271.428 145.931 273.274 145.583 273.783 146.068C270.792 149.603 267.765 154.194 268.477 155.302C269.226 156.469 271.15 155.558 273.083 154.351C274.134 154.763 275.531 153.359 277.111 153.616C278.753 153.88 280.011 155.284 280.011 155.284L280.784 154.703C280.784 154.703 280.809 154.687 280.819 154.679C280.798 154.805 280.806 154.928 280.752 155.057C280.247 156.282 278.767 157.838 276.849 159.32C276.811 159.296 276.764 159.272 276.726 159.248C274.892 158.089 272.282 157.799 272.668 158.67C272.91 159.216 274.258 160.449 274.291 161.073C274.089 161.197 273.892 161.328 273.685 161.447C273.401 161.451 273.018 161.405 272.473 161.28C268.705 160.409 262.04 155.482 261.655 156.642C261.269 157.801 261.269 159.445 258.177 159.735C255.087 160.026 254.507 161.28 256.536 163.02C258.565 164.759 265.52 163.891 264.554 164.376C263.586 164.859 260.979 166.984 263.296 167.758C264.826 168.267 266.438 166.803 267.887 165.517C267.288 166.261 266.925 167.022 266.879 167.744C266.762 168.014 266.778 168.119 266.879 168.143C266.955 168.803 267.332 169.42 268.103 169.943C268.34 170.104 268.546 170.213 268.737 170.297C269.288 170.889 269.967 171.197 270.446 170.559C270.927 169.917 273.349 168.778 275.279 168.064C275.676 168.384 276.124 168.632 276.634 168.75C275.106 170.249 272.789 172.464 273.826 172.684C275.18 172.977 278.174 169.98 277.789 171.428C277.403 172.877 278.947 173.362 279.816 172.299C280.686 171.237 281.555 170.851 283.486 170.656C283.554 170.65 283.637 170.627 283.715 170.609C283.498 170.831 283.29 171.034 283.107 171.181C281.525 172.47 278.91 174.927 277.447 176.587C274.731 175.351 270.255 172.83 269.965 173.561C269.578 174.525 272.38 178.005 271.124 177.041C269.868 176.074 265.424 174.82 263.878 174.915C262.334 175.011 263.491 177.136 260.884 177.522C258.276 177.909 257.986 176.17 256.633 177.909C255.282 179.649 257.021 179.649 258.082 179.745C258.837 179.814 258.147 180.995 258.507 181.679C258.211 181.93 258.004 182.279 257.851 182.703C254.848 182.343 252.237 182.079 251.635 181.935C250.057 181.566 258.69 175.808 257.762 174.321C256.834 172.834 248.384 181.379 247.643 180.914C246.9 180.45 251.913 175.247 253.954 174.321C255.997 173.39 255.904 169.861 254.697 170.696C253.491 171.533 251.82 171.905 251.913 170.139C252.005 168.376 240.493 167.449 240.215 166.428C239.936 165.406 244.95 162.62 244.857 161.32C244.763 160.018 240.493 159.459 239.471 158.532C238.45 157.604 240.306 156.491 244.763 155.003C249.221 153.518 252.657 150.174 249.127 150.174C245.598 150.174 247.828 149.617 247.084 148.315C246.343 147.015 238.543 150.733 237.615 150.174C236.687 149.617 241.421 145.714 239.843 144.788C238.265 143.857 237.337 145.16 237.152 144.042C236.966 142.929 238.45 141.816 237.431 141.444C236.409 141.074 243.279 136.614 242.442 135.125C241.608 133.64 232.695 138.656 231.024 138.471C229.352 138.285 231.302 135.777 232.482 133.179C233.663 130.576 232.788 130.948 231.024 131.875C229.259 132.807 233.716 128.53 232.137 127.326C230.559 126.121 218.119 135.316 216.448 134.105C214.776 132.898 227.123 125.747 226.195 124.166C225.269 122.588 220.346 127.326 219.697 126.119C219.047 124.91 227.681 118.78 226.847 117.2C226.012 115.619 215.613 124.538 214.033 123.518C212.455 122.496 220.253 114.042 221.97 111.72C223.687 109.398 222.018 109.863 221.183 109.398C220.346 108.933 223.319 104.754 221.183 103.545C219.047 102.338 215.613 114.879 213.94 114.879C212.266 114.879 214.496 98.5285 213.475 96.58C212.453 94.6296 211.712 97.1367 211.247 100.853C210.782 104.569 211.247 102.149 209.482 102.614C207.718 103.079 209.669 110.975 208.554 112.277C207.439 113.573 202.519 104.658 200.848 105.773C199.177 106.887 203.076 111.531 206.142 114.78C209.204 118.033 204.006 114.687 200.013 113.203C196.021 111.714 199.179 116.265 201.404 118.206C203.634 120.144 203.262 122.397 199.92 119.24C196.577 116.08 197.227 120.914 198.992 123.699C200.756 126.485 201.498 129.179 199.735 129.085C197.97 128.992 193.793 126.389 192.585 127.506C191.379 128.622 195.278 132.429 194.536 132.059C193.793 131.686 192.4 130.942 193.143 132.521C193.885 134.099 191.379 132.895 189.708 134.565C188.036 136.239 194.35 141.342 191.75 140.601C189.151 139.859 186.18 136.422 182.373 136.606C178.567 136.791 181.166 138.096 183.023 139.953C184.881 141.808 186.643 143.201 188.314 144.408C189.986 145.615 192.863 147.192 192.4 148.681C191.935 150.166 187.202 145.428 186.456 147.102C185.715 148.774 187.943 152.116 185.715 152.116C183.488 152.116 176.522 148.122 175.966 149.607C175.41 151.093 183.023 155.55 183.392 156.759C183.764 157.968 167.981 156.479 168.909 158.801C169.837 161.123 177.822 160.66 179.03 160.379C180.236 160.101 186.272 163.354 186.085 165.024C185.9 166.696 179.865 166.139 177.266 166.513C174.666 166.887 175.038 167.535 174.76 169.67C174.481 171.806 177.639 174.036 179.773 175.428C181.91 176.824 181.351 178.587 178.38 176.915C175.408 175.245 168.631 167.163 167.238 169.392C165.845 171.623 173.458 176.359 172.808 177.565C172.294 178.518 163.043 177.565 159.132 178.452C158.594 178.18 158.23 177.695 158.19 176.736C158.151 175.768 156.875 175.933 155.275 176.492C154.327 175.516 153.268 174.615 152.916 173.281C152.608 172.108 152.3 169.927 151.823 168.014C152.129 167.809 152.404 167.573 152.682 167.263C153.417 166.445 152.489 166.183 151.193 166.002C150.798 165.048 150.311 164.392 149.693 164.354C149.389 164.334 149.137 164.513 148.912 164.803C148.564 164.241 148.298 163.596 147.755 163.201C147.604 163.091 147.372 163 147.108 162.916C147.133 162.815 147.131 162.716 147.09 162.618C146.47 161.129 145.104 159.019 144.486 157.904C143.866 156.789 143.495 153.81 141.512 153.065C140.915 152.842 140.466 152.967 140.109 153.27C138.974 152.651 134.63 152.888 134.234 151.701C133.754 150.252 130.661 148.705 129.211 149.768C128.032 150.633 124.763 153.065 122.643 153.85C122.039 153.039 121.649 152.134 121.411 151.409C121.558 151.262 121.713 151.128 121.87 151.023C123.029 150.252 126.506 151.313 126.989 150.252C127.472 149.188 128.05 149.576 128.34 148.896C128.628 148.222 129.499 147.06 130.272 147.641C131.045 148.222 134.04 149.381 135.198 148.607C136.357 147.832 138.096 150.347 138.485 149.669C138.869 148.993 143.602 146.766 143.702 145.51C143.799 144.253 139.161 144.446 138.485 143.384C137.809 142.323 142.153 139.615 142.736 138.456C143.314 137.296 139.644 137.394 137.809 137.296C135.973 137.201 141.285 132.463 140.127 131.209C138.968 129.95 135.78 136.135 133.662 134.396C131.542 132.658 129.791 138.261 128.827 140.195C128.336 141.175 126.649 142.879 124.869 144.255C123.094 143.478 121.552 143.5 121.552 142.275C121.552 140.786 126.387 141.157 126.015 139.422C125.644 137.684 121.055 136.817 121.137 135.451C121.161 135.054 120.817 134.688 120.324 134.334C120.64 133.453 121.041 132.678 121.484 132.268C122.74 131.109 123.223 133.139 123.704 134.394C124.189 135.65 126.025 132.944 126.798 132.559C127.571 132.173 130.081 133.62 130.566 132.171C131.049 130.721 123.901 127.532 123.706 126.757C123.515 125.984 133.463 127.821 133.658 126.371C133.851 124.922 129.213 124.053 128.732 123.28C128.249 122.504 133.463 120.765 132.982 119.027C132.5 117.287 126.703 121.731 125.423 122.216C124.141 122.699 126.317 118.544 124.771 119.317C123.398 120.003 121.264 124.647 119.652 126.288C119.138 125.974 118.669 125.733 118.456 125.254C118.653 124.19 119.022 122.878 118.975 122.216C118.879 120.86 126.22 112.742 125.35 111.102C124.479 109.46 120.423 115.162 119.36 115.062C118.297 114.967 119.165 109.07 118.684 107.813C118.202 106.557 117.14 104.817 116.173 104.722C115.209 104.624 115.69 116.124 115.497 117.673C115.443 118.096 115.058 117.717 114.521 117.009C114.593 116.864 114.666 116.719 114.736 116.593C115.479 115.227 114.239 112.995 112.627 112.5C111.016 112.003 111.139 108.157 108.659 108.157C106.179 108.157 106.304 109.398 107.82 112.126C109.337 114.856 104.816 114.359 104.816 116.591C104.816 118.824 108.164 118.204 107.791 120.562C107.739 120.894 107.568 121.168 107.326 121.413C106.231 120.844 104.881 120.198 103.711 120.574C102.691 120.9 103.037 121.967 103.812 123.19C102.292 123.878 100.766 124.814 100.102 126.638C98.6136 130.731 101.219 132.095 100.102 134.205C99.2992 135.722 97.4789 136.473 96.1474 137.605C94.7902 136.913 93.7866 136.589 93.6634 137.197C93.5144 137.937 94.0629 138.776 94.7922 139.571C94.4484 140.996 95.7579 141.917 97.0536 142.985C95.8394 143.525 93.1626 144.02 94.1463 144.927C95.1598 145.864 96.843 145.615 97.465 145.987C95.5592 147.047 91.5927 147.85 88.9438 148.098C84.9753 148.47 83.2405 139.911 81.0088 138.265C78.7772 136.618 86.8373 135.076 86.7896 132.346C86.7439 129.616 81.6289 126.888 83.4889 126.888C85.3489 126.888 88.8206 122.049 85.2237 122.049C81.6269 122.049 85.2237 118.699 85.2237 117.335C85.2237 115.971 85.2237 112.623 81.8753 112.249C78.5268 111.875 83.8585 105.056 80.6352 104.433C77.412 103.813 81.2552 99.8427 78.5268 99.5941C75.7984 99.3476 75.0551 96.1227 75.1783 92.6494C75.3016 89.176 70.8383 90.4166 70.9615 93.3929C71.0847 96.3693 67.613 96.1227 67.1182 100.091C66.8599 102.159 66.1306 103.209 65.3834 103.944C62.1561 105.241 54.0821 113.189 53.2574 112.671C52.2737 112.058 58.8931 105.195 61.5898 103.97C64.2844 102.741 64.1612 98.0831 62.5675 99.1846C60.9757 100.29 58.7699 100.781 58.8951 98.4489C59.0123 96.1227 43.8201 94.898 43.4505 93.548C43.0848 92.2 49.7062 88.5218 49.583 86.804C49.4598 85.0842 43.8201 84.3486 42.4708 83.1219C41.1234 81.8972 43.5737 80.4299 49.4578 78.4635C55.338 76.5032 59.8748 72.0913 55.2168 72.0913C50.5587 72.0913 53.4978 71.3557 52.5221 69.6399C51.5424 67.9221 41.2466 72.829 40.0205 72.0913C38.7964 71.3557 45.0442 66.2043 42.9616 64.9796C40.877 63.7548 39.6529 65.4726 39.4085 63.9974C39.1601 62.5321 41.1214 61.0568 39.7721 60.5697C38.4248 60.0766 47.4925 54.1936 46.3895 52.2292C45.2886 50.2688 33.5243 56.8915 31.3165 56.645C29.1127 56.4005 31.6842 53.0901 33.2401 49.6585C34.8001 46.2248 33.6475 46.7159 31.3165 47.9367C28.9875 49.1674 34.8716 43.5209 32.7851 41.9323C30.7045 40.3378 14.2841 52.4777 12.0803 50.8812C9.87049 49.2867 26.1696 39.8467 24.9415 37.7611C23.7214 35.6754 17.2252 41.9323 16.3647 40.3378C15.5122 38.7413 26.9049 30.6532 25.806 28.5637C24.7011 26.48 10.9774 38.2522 8.89278 36.9042C6.81018 35.5542 17.104 24.3964 19.3674 21.3326C21.6368 18.2668 19.433 18.8831 18.3301 18.2668C17.2252 17.6504 21.146 12.1351 18.3301 10.5386C15.5122 8.94806 10.9774 25.4998 8.76957 25.4998C6.56177 25.4998 9.50484 3.91791 8.15353 1.34517C6.81018 -1.22557 5.82849 2.08081 5.21643 6.98769C4.60437 11.8946 5.21643 8.69754 2.88741 9.30991C0.560384 9.92824 3.13184 20.3484 1.66329 22.0682C1.32546 22.4579 0.721348 22.1259 -0.027832 21.434V393.484H1.10091C1.00353 393.723 0.906159 393.973 0.802824 394.16H15.0194C15.0194 394.16 14.9737 393.914 14.8981 393.484H113.337C113.234 393.902 113.17 394.16 113.17 394.16H131.331C131.226 394.071 131.114 393.82 130.997 393.484H208.197C208.101 393.739 208.002 393.973 207.899 394.16H218.667C218.667 394.16 218.622 393.904 218.548 393.484H289.539C289.436 393.902 289.372 394.16 289.372 394.16H307.534C307.428 394.071 307.317 393.82 307.2 393.484H732.641C732.537 393.902 732.474 394.16 732.474 394.16H745.645C745.552 394.079 745.448 393.834 745.341 393.484H1271.22C1271.12 393.902 1271.05 394.16 1271.05 394.16H1289.22C1289.11 394.071 1289 393.82 1288.88 393.484H1426.53C1426.43 393.912 1426.37 394.16 1426.37 394.16H1439.91V393.484H1439.97V169.306L1440 169.33ZM162.27 197.634C162.185 196.004 165.203 196.95 167.439 195.976C169.893 196.744 172.488 197.477 172.83 198.108C173.48 199.314 167.167 196.901 167.167 198.758C167.167 200.615 175.801 204.424 171.715 203.03C169.196 202.171 164.633 203.042 161.569 204.12C160.213 203.818 158.904 203.643 159.512 202.698C160.04 201.877 160.414 200.976 160.39 200.239C161.427 200.718 162.485 201.173 163.333 201.305C165.845 201.688 162.367 199.469 162.27 197.634ZM254.433 192.976C254.538 193.572 254.797 194.33 254.783 194.837C254.771 195.243 253.728 195.113 252.396 194.865C253.054 194.264 253.793 193.608 254.433 192.976ZM251.059 197.074C250.9 197.068 250.777 197.046 250.725 196.994C250.719 196.988 250.725 196.974 250.717 196.968C250.836 197.002 250.948 197.038 251.059 197.074ZM165.589 208.975C166.888 210.647 171.159 212.504 169.118 213.156C168.83 213.248 168.621 213.387 168.452 213.548C168.375 213.079 168.287 212.604 168.192 212.126C167.695 209.647 161.123 212.25 160.257 211.011C159.671 210.172 161.69 208.991 162.983 207.665C164.106 207.983 165.124 208.377 165.589 208.977V208.975ZM132.957 169.78C132.986 169.265 132.969 168.732 133.002 168.34C133.086 167.326 133.984 166.165 135.176 167.507C134.68 168.444 133.861 169.261 132.957 169.78ZM129.324 169.368C129.36 169.424 129.392 169.479 129.427 169.535C129.39 169.479 129.352 169.424 129.324 169.368ZM122.585 163.04C122.752 163.123 122.943 163.537 123.148 164.127C122.267 163.708 121.868 163.314 122.585 163.04ZM339.532 201.305C342.044 201.688 338.566 199.467 338.469 197.632C338.371 195.793 342.232 197.247 344.458 195.505C344.5 195.473 344.522 195.447 344.557 195.417C344.418 196.942 344.227 198.434 343.627 198.853C342.387 199.722 342.139 205.056 340.279 205.551C338.421 206.048 334.699 202.45 334.204 200.714C334.033 200.112 333.904 199.557 333.749 199.018C335.267 199.495 337.815 201.04 339.53 201.305H339.532ZM326.201 184.292C326.909 184.292 327.694 184.687 328.423 185.192C328.222 185.914 328.016 186.858 327.753 187.763C326.235 186.721 324.369 184.292 326.201 184.292ZM322.819 186.9C324.246 188.433 326.188 188.862 327.406 188.815C327.193 189.365 326.945 189.845 326.643 190.169C325.703 191.183 325.975 192.201 325.882 193.338C322.968 194.266 319.526 194.992 317.7 194.535C316.764 194.3 315.655 193.867 314.533 193.338C317.966 192.521 323.213 191.912 323.046 190.912C322.956 190.379 321.877 189.801 320.419 189.194C320.439 188.843 320.401 188.453 320.307 188.057C319.824 186.027 320.21 184.097 322.819 186.9ZM299.853 134.211C298.883 133.716 297.921 133.405 296.997 133.312C297.216 132.889 297.452 132.517 297.705 132.284C298.897 131.183 299.392 132.954 299.853 134.211ZM290.95 135.111C290.422 135.135 289.849 135.038 289.168 134.753C288.762 133.722 288.357 132.724 287.987 132.02C288.295 131.632 288.627 131.228 288.782 130.789C289.563 131.529 290.386 133.336 290.95 135.111ZM270.756 187.777C271.43 187.608 272.262 188.487 272.845 189.252C272.662 189.524 272.457 189.761 272.215 189.922C271.696 190.268 271.386 190.636 271.197 191.039C269.878 189.97 269.49 188.763 269.208 189.326C268.725 190.292 267.469 189.52 265.925 188.546C264.973 187.948 263.912 188.562 262.879 188.944C263.137 187.928 263.294 186.932 262.978 186.238C263.201 186.222 263.419 186.206 263.634 186.19C263.747 186.393 263.884 186.558 264.089 186.62C264.403 186.713 264.647 186.427 264.906 186.081C265.82 185.993 266.615 185.894 267.243 185.777C267.318 185.85 267.39 185.918 267.469 186.007C269.594 188.391 269.594 188.069 270.754 187.779L270.756 187.777ZM260.578 182.357C260.963 182.542 261.11 182.838 261.192 183.142C261.027 183.12 260.864 183.097 260.699 183.073C260.659 182.818 260.617 182.58 260.578 182.357ZM248.219 187.333C248.714 186.952 252.283 186.775 256.309 186.59C256.202 186.709 256.118 186.838 255.989 186.946C255.023 187.749 254.515 188.662 254.399 189.652C251.86 188.753 247.259 188.073 248.219 187.333ZM176.822 181.482C179.607 181.389 183.412 182.506 182.858 183.713C182.299 184.92 171.159 183.713 170.509 186.127C169.859 188.542 176.173 190.214 176.173 192.071C176.173 193.928 162.524 192.352 162.896 193.839C162.978 194.163 163.48 194.491 164.202 194.819C163.234 194.873 162.228 194.899 161.304 194.829C157.441 194.539 162.27 193.67 161.978 192.608C161.69 191.544 159.081 194.443 156.861 195.604C156.622 195.73 156.432 195.807 156.257 195.871C156.257 194.573 156.795 193.163 157.9 192.405C160.255 190.791 164.595 187.32 161 187.071C158.379 186.89 157.996 185.268 157.26 184.299C158.252 184.18 159.291 184.029 159.661 183.518C160.434 182.456 155.311 182.359 159.079 181.973C160.11 181.868 160.935 181.611 161.575 181.297C166.692 181.904 174.937 181.546 176.82 181.484L176.822 181.482ZM146.122 172.929C145.011 173.698 141.784 173.229 140.166 171.81C140.669 171.961 141.021 171.937 141.021 171.627C141.021 170.563 142.082 167.952 143.048 168.632C143.807 169.161 145.693 169.623 147.495 169.473C147.141 171.05 146.756 172.49 146.122 172.929ZM131.647 160.22C133.869 160.22 134.932 158.866 136.476 157.998C138.022 157.127 135.51 157.127 135.703 156.063C135.85 155.26 137.986 155.172 139.352 154.59C139.099 155.369 138.98 156.288 138.928 157.049C138.885 157.711 138.791 158.403 138.652 159.057C137.468 159.68 136.271 160.409 135.415 160.513C133.773 160.705 132.901 162.733 130.487 163.121C128.146 163.495 128.593 161.167 126.431 161.02C126.908 160.61 127.361 160.167 127.78 159.709C129.099 159.978 130.532 160.22 131.647 160.22ZM114.75 120.663C113.969 120.568 113.726 120.037 113.78 119.343C114.156 119.806 114.489 120.25 114.75 120.663ZM62.1502 109.678C61.9236 110.81 61.9137 111.935 62.4323 112.766C62.7404 113.259 63.0186 113.907 63.2312 114.643C60.8863 114.374 59.0958 114.17 58.5513 114.042C57.5259 113.802 59.7615 111.839 62.1502 109.678ZM54.0145 121.15C54.6087 120.693 58.5513 120.458 63.2511 120.234C63.0563 120.842 62.8059 121.429 62.4323 121.944C61.8163 122.79 61.1804 123.292 60.5763 123.707C57.2159 122.759 52.9335 121.983 54.0145 121.15ZM429.239 218.594C429.117 218.467 428.998 218.335 428.895 218.176C429.388 217.761 429.857 217.403 430.288 217.218C431.413 216.733 430.395 217.542 429.241 218.594H429.239ZM438.014 220.91C437.772 221.206 437.257 221.707 436.675 222.278C436.448 222.119 436.222 221.962 435.999 221.803C435.832 221.682 435.709 221.503 435.59 221.32C437.158 220.737 438.404 220.435 438.014 220.91ZM439.594 226.64C439.606 226.408 439.582 226.199 439.558 225.99C439.765 225.897 439.966 225.763 440.136 225.551C441.007 224.489 441.875 224.103 443.807 223.908C445.74 223.716 451.342 219.365 451.633 217.723C451.923 216.081 453.179 218.785 453.369 221.01C453.562 223.201 441.303 230.165 439.739 230.464C439.566 229.114 439.54 227.706 439.594 226.64ZM446.45 243.24C446.38 242.59 446.339 241.922 446.307 241.259C449.127 240.234 452.521 239.164 453.657 239.259C453.665 239.488 453.683 239.731 453.705 239.983C452.743 240.812 449.808 242.094 446.452 243.24H446.45ZM459.615 224.775C458.343 223.574 458.168 221.443 457.717 219.938C457.137 218.005 458.298 215.976 459.069 216.266C459.685 216.496 460.611 221.278 461.547 223.3C461.082 223.926 460.402 224.346 459.613 224.773L459.615 224.775ZM471.821 230.768C471.511 230.792 471.205 230.8 470.905 230.794C470.63 229.279 470.135 227.276 468.854 225.897C468.315 225.318 467.926 224.867 467.61 224.449C467.693 224.489 467.771 224.551 467.86 224.576C469.792 225.157 469.406 222.741 469.504 221.58C469.599 220.421 470.759 219.067 472.208 221.485C472.765 222.411 473.673 223.274 474.585 223.934C474.917 225.517 475.157 227.338 475.187 228.927C474.011 229.847 472.788 230.692 471.823 230.766L471.821 230.768ZM476.542 210.514C476.532 210.947 476.512 211.325 476.489 211.683C474.939 212.275 473.104 213.614 471.92 213.755C470.279 213.948 469.406 215.975 466.992 216.363C466.417 216.455 466.02 216.375 465.704 216.212C465.483 215.486 465.084 214.975 464.371 214.884C464.009 214.524 463.548 214.236 462.743 214.236C460.329 214.236 458.009 213.075 457.429 211.918C456.851 210.756 459.748 212.11 461.102 212.299C462.455 212.496 465.931 213.462 468.152 213.462C470.374 213.462 471.437 212.108 472.981 211.24C474.527 210.369 472.015 210.369 472.208 209.305C472.389 208.313 475.574 208.4 476.626 207.315C476.59 208.355 476.566 209.432 476.542 210.514ZM476.656 206.541C475.563 205.905 471.157 206.156 470.759 204.957C470.279 203.507 467.186 201.961 465.736 203.024C464.287 204.086 459.651 207.563 457.912 207.371C456.171 207.178 457.236 205.052 458.395 204.277C459.554 203.505 463.031 204.567 463.514 203.505C463.997 202.442 464.575 202.83 464.865 202.15C465.154 201.476 466.024 200.314 466.797 200.895C467.57 201.476 470.565 202.635 471.723 201.861C472.882 201.086 474.621 203.601 475.01 202.923C475.173 202.637 476.119 202.068 477.158 201.418C476.876 202.766 476.737 204.559 476.656 206.537V206.541ZM626.974 215.335C626.261 214.558 625.8 213.717 625.901 212.498C625.913 212.347 625.888 212.19 625.874 212.035C626.025 211.906 626.178 211.733 626.335 211.434C627.205 209.792 628.749 212.888 628.944 214.339C629.027 214.969 628.205 215.242 626.974 215.335ZM633.673 207.329C633.546 207.343 633.399 207.382 633.292 207.371C631.551 207.178 632.616 205.052 633.775 204.277C633.787 204.269 633.805 204.267 633.816 204.259C633.656 205.13 633.669 206.253 633.671 207.327L633.673 207.329ZM660.451 262.442C658.631 264.756 658.138 266.742 656.318 265.585C654.499 264.428 654.499 262.609 653.09 261.12C652.594 260.595 652.405 259.988 652.343 259.334C653.104 259.909 654.172 260.867 655.314 261.41C657.345 262.376 657.053 261.12 657.246 259.96C657.44 258.801 656.282 254.159 658.792 259.575C659.692 261.513 660.155 262.225 660.503 262.354C660.483 262.38 660.471 262.416 660.451 262.442ZM664.914 240.114C664.062 241.82 663.372 244.111 663.289 245.987C660.153 247.16 655.588 248.331 653.385 247.779C652.715 247.612 651.95 247.333 651.163 247.003C651.193 246.337 651.252 245.606 651.197 244.751C651.125 243.679 650.706 242.331 650.169 240.997C650.577 240.733 651.328 240.941 652.612 242.267C655.509 245.264 656.475 243.329 655.992 241.301C655.509 239.271 655.894 237.339 658.504 240.142C661.111 242.943 665.461 242.075 663.915 241.301C662.371 240.528 659.857 237.532 661.886 237.532C662.965 237.532 664.229 238.432 665.181 239.279C665.105 239.611 665.02 239.903 664.916 240.112L664.914 240.114ZM752.105 257.646C751.881 257.873 751.646 258.058 751.396 258.175C751.43 257.964 751.454 257.754 751.483 257.596C751.537 257.33 751.764 257.408 752.105 257.646ZM716.421 264.243C716.159 263.026 717.107 261.499 717.758 260.114C719.04 261.221 720.274 262.195 720.588 262.579C720.952 263.026 718.742 263.728 716.421 264.243ZM722.621 247.854C718.77 247.993 718.208 244.912 717.86 245.61C717.508 246.311 716.598 245.751 715.479 245.045C714.948 244.713 714.372 244.9 713.792 245.13C713.653 244.677 713.508 244.256 713.353 243.92C712.989 243.132 712.896 242.456 712.918 241.81C713.671 242.065 713.508 243.458 714.144 243.651C714.845 243.86 715.056 241.476 716.596 243.206C718.136 244.934 718.136 244.701 718.979 244.49C719.817 244.282 721.01 246.313 721.01 246.313L722.411 246.453C723.527 246.566 724.07 245.791 724.773 245.222C725.038 245.924 725.413 246.665 725.731 247.371C724.551 247.642 723.462 247.824 722.619 247.856L722.621 247.854ZM714.497 227.525C713.794 227.875 711.902 229.416 713.585 229.976C715.267 230.537 717.087 227.801 718.42 227.225C719.75 226.652 716.948 228.575 716.318 229.696C715.686 230.817 716.737 229.766 716.876 230.605C717.015 231.448 718.138 232.847 718.768 232.006C719.398 231.165 724.652 229.135 724.024 229.903C723.392 230.674 720.238 233.338 721.22 233.549C722.202 233.758 724.372 231.587 724.092 232.637C723.813 233.688 724.934 234.04 725.562 233.267C726.097 232.617 726.659 232.322 727.659 232.161C727.237 233.251 727.076 234.587 727.498 235.794C726.357 236.41 725.465 236.828 725.214 236.848C724.304 236.915 718.698 233.484 718.42 234.183C718.138 234.885 720.173 237.406 719.261 236.708C718.349 236.007 715.127 235.096 714.007 235.168C713.48 235.199 713.387 235.561 713.238 235.963C713.047 233.923 712.58 231.615 711.534 230.686C710.922 230.141 710.732 228.704 710.533 227.211C712.51 227.525 715.004 227.27 714.499 227.523L714.497 227.525ZM828.363 223.638C827.715 223.867 827.216 223.952 826.982 223.781C826.543 223.465 827.23 222.67 828.365 221.686C828.345 222.332 828.345 222.988 828.365 223.636L828.363 223.638ZM1389.83 189.23C1391.61 190.181 1394.81 187.693 1394.45 189.952C1394.1 192.215 1383.89 192.682 1381.63 190.9C1381.32 190.654 1381.04 190.471 1380.77 190.328C1380.77 190.318 1380.77 190.306 1380.76 190.296C1380.2 188.67 1382.53 188.009 1384.35 187.168C1384.43 187.22 1384.5 187.292 1384.6 187.329C1386.62 188.045 1389.47 184.48 1389.71 185.192C1389.94 185.908 1388.05 188.28 1389.83 189.232L1389.83 189.23ZM1364.98 178.613C1364.28 177.973 1365.07 177.237 1367.25 176.331C1369.57 176.629 1368.52 177.985 1366.8 179.434C1366.02 179.172 1365.31 178.915 1364.98 178.613ZM1396.35 202.895C1396.71 204.915 1399.8 208.003 1396.59 208.122C1395.69 208.156 1394.89 208.448 1394.13 208.84C1393.3 207.19 1393.24 204.696 1392.83 202.979C1395.82 201.44 1401.35 200.265 1402.05 201.47C1402.88 202.895 1396 200.875 1396.35 202.895H1396.35ZM1380.92 153.353C1380.33 155.256 1380.45 155.608 1384.48 156.441C1388.52 157.272 1385.79 158.344 1388.28 158.817C1390.77 159.292 1390.77 161.906 1391.72 161.906C1392.67 161.906 1394.45 158.344 1396.12 161.431C1397.78 164.519 1405.14 169.863 1406.21 171.169C1407.27 172.48 1395.28 175.096 1391.84 175.096C1388.4 175.096 1386.97 172.247 1384.36 171.772C1383.42 171.601 1383.04 172.185 1382.76 172.951C1382.37 172.505 1381.83 172.074 1381.13 171.69C1378.16 170.076 1381.87 168.712 1382.5 167.72C1383.13 166.728 1379.52 164 1377.29 162.759C1375.06 161.519 1382.25 160.401 1382.5 159.286C1382.74 158.169 1375.8 158.54 1375.06 157.92C1374.31 157.302 1380.76 156.184 1380.26 154.944C1379.77 153.703 1377.04 152.586 1375.68 151.594C1375.4 151.391 1375.43 151.13 1375.63 150.842C1377.88 151.741 1381.33 152.029 1380.92 153.353H1380.92ZM1363.12 163.03C1362.44 162.785 1365.55 160.574 1367.02 158.862C1368.33 159.069 1369.24 159.383 1368.61 160.276C1367.11 162.386 1364.52 162.386 1365.76 164.867C1367 167.348 1369.48 165.859 1366.01 168.34C1364.99 169.066 1364.24 170.024 1363.79 171.024C1363.56 171.052 1363.38 171.05 1363.29 170.992C1362.44 170.485 1366.76 166.927 1365.32 166.082C1363.88 165.233 1363.03 166.42 1362.86 165.4C1362.69 164.386 1364.05 163.368 1363.12 163.03ZM1300.93 168.632C1301.88 169.297 1304.62 169.865 1306.73 169.229C1305.55 170.967 1305.19 173.671 1304.27 175.535C1304.08 175.591 1303.87 175.667 1303.63 175.784C1301.51 176.848 1301.31 175.203 1300.64 173.561C1300.43 173.056 1299.89 173.221 1299.16 173.69C1299.08 172.732 1299.07 171.684 1299.07 170.643C1299.41 169.485 1300.2 168.116 1300.93 168.63L1300.93 168.632ZM1290.89 168.338C1290.98 167.179 1292.14 165.825 1293.59 168.243C1294.15 169.181 1295.08 170.056 1296 170.72C1295.42 173.752 1294.63 176.81 1292.94 177.269C1290.77 177.862 1290.07 174.506 1289.37 171.35C1291.14 171.77 1290.79 169.469 1290.88 168.336L1290.89 168.338ZM1280.45 163.024C1281.23 163.314 1282.48 170.756 1283.64 170.949C1284.8 171.142 1284.61 166.694 1285.48 166.891C1285.65 166.929 1285.82 167.121 1286 167.374C1285.39 168.559 1284.83 170.601 1284.2 172.547C1283.56 172.511 1282.93 172.448 1282.38 172.305C1279.78 171.625 1279.68 168.628 1279.1 166.694C1278.52 164.761 1279.68 162.731 1280.45 163.022L1280.45 163.024ZM1266.13 157.727C1267.1 157.481 1267.82 157.186 1267.6 158.387C1267.32 160.03 1269.15 159.258 1269.92 158.868C1270.7 158.483 1271.47 159.835 1272.34 158.192C1273.21 156.55 1274.75 159.646 1274.95 161.097C1275.14 162.545 1270.7 162.157 1267.02 161.869C1267 161.869 1266.98 161.863 1266.95 161.861C1266.69 160.459 1266.44 158.954 1266.13 157.727ZM1259.39 167.668C1259.11 168.018 1258.45 168.65 1257.74 169.35C1257.05 169.736 1256.28 169.931 1255.42 169.827C1254.86 169.762 1254.52 169.531 1254.27 169.227C1256.64 168.074 1260 166.927 1259.39 167.668Z" fill="white"/>
<path d="M145.385 300.561L144.399 298.11L139.534 300.187L136.498 298.638L141.598 295.659L140.326 293.349L133.714 297.22L131.227 295.95L136.196 293.073C136.571 292.856 136.812 292.462 136.845 292.02C136.879 291.58 136.702 291.152 136.366 290.878L131.903 287.221L134.555 286.376L140.486 291.279L142.098 289.209L137.522 285.43L140.757 284.399L145.24 287.244L146.591 284.987L144.024 283.358L148 282.087L147.235 279.556L143.201 280.84L144.119 277.098L141.626 276.449L140.32 281.757L136.788 282.889L138.224 277.033L135.729 276.385L133.903 283.804L131.327 284.626L133.058 278.206C133.171 277.781 133.074 277.326 132.796 276.992C132.523 276.661 132.11 276.489 131.675 276.533L125.248 277.271L126.444 274.784L133.843 274.109L133.617 271.464L127.781 271.996L129.424 268.58L134.721 268.097L134.494 265.457L130.759 265.797L132.634 261.896L130.326 260.722L128.483 264.56L127.33 261.692L124.95 262.706L126.967 267.718L125.462 270.849L122.571 265.593L120.33 266.901L124.086 273.717L122.857 276.276L120.06 271.156C119.644 270.388 118.464 270.291 117.931 270.981L114.385 275.581L113.563 272.85L118.322 266.735L116.313 265.076L112.647 269.793L111.644 266.455L114.407 261.836L112.214 260.446L110.635 263.088L109.402 258.997L106.944 259.78L108.193 263.937L104.56 262.991L103.929 265.561L109.085 266.904L110.181 270.546L104.499 269.064L103.87 271.639L111.071 273.516L111.868 276.171L105.637 274.388C105.216 274.278 104.782 274.373 104.457 274.658C104.133 274.942 103.966 275.374 104.012 275.814L104.73 282.431L102.313 281.201L101.658 273.577L99.0971 273.809L99.6106 279.824L96.2935 278.13L95.8292 272.675L93.2637 272.909L93.594 276.754L89.8112 274.825L88.6683 277.199L92.3961 279.103L89.6088 280.292L90.5984 282.74L95.4602 280.664L98.4974 282.211L93.3976 285.194L94.6655 287.501L101.282 283.631L103.767 284.899L98.798 287.78C98.4275 287.997 98.1819 288.389 98.1492 288.829C98.115 289.269 98.2965 289.699 98.6284 289.975L103.093 293.627L100.442 294.475L94.5063 289.571L92.8976 291.643L97.4736 295.418L94.2354 296.45L89.7547 293.605L88.4005 295.863L90.969 297.492L86.9942 298.761L87.7576 301.294L91.7889 300.009L90.8708 303.752L93.3679 304.4L94.6685 299.089L98.2043 297.96L96.7712 303.816L99.2638 304.463L101.085 297.043L103.667 296.22L101.935 302.641C101.823 303.065 101.92 303.525 102.197 303.857C102.472 304.193 102.895 304.368 103.32 304.316L109.743 303.577L108.548 306.065L101.149 306.742L101.374 309.383L107.212 308.854L105.569 312.269L100.271 312.752L100.499 315.393L104.231 315.052L102.359 318.952L104.666 320.128L106.514 316.287L107.664 319.157L110.045 318.139L108.029 313.129L109.533 310.001L112.426 315.256L114.666 313.947L110.91 307.131L112.142 304.572L114.934 309.689C115.144 310.072 115.529 310.325 115.955 310.36C116.382 310.395 116.798 310.208 117.062 309.863L120.612 305.265L121.432 307.996L116.673 314.111L118.685 315.771L122.351 311.056L123.354 314.391L120.592 319.008L122.785 320.404L124.366 317.757L125.593 321.851L128.055 321.068L126.805 316.911L130.44 317.858L131.071 315.288L125.915 313.945L124.819 310.305L130.5 311.783L131.131 309.212L123.93 307.333L123.13 304.679L129.363 306.458C129.782 306.576 130.22 306.475 130.541 306.191C130.866 305.906 131.031 305.472 130.985 305.033L130.267 298.417L132.681 299.647L133.34 307.271L135.903 307.039L135.388 301.024L138.701 302.717L139.172 308.174L141.733 307.942L141.403 304.097L145.187 306.024L146.333 303.647L142.603 301.746L145.388 300.558L145.385 300.561ZM133.266 291.726L128.436 294.525L120.961 290.712L128.928 288.17L133.266 291.726ZM130.071 279.391L128.412 285.562L119.982 288.25L123.897 280.1L130.071 279.391ZM118.76 274.184L121.476 279.161L117.776 286.863L115.309 278.654L118.76 274.184ZM106.788 277.475L112.775 279.184L115.386 287.871L107.477 283.838L106.788 277.475ZM101.733 289.13L106.566 286.328L114.038 290.142L106.073 292.684L101.733 289.13ZM104.928 301.465L106.59 295.295L115.02 292.606L111.102 300.754L104.928 301.465ZM116.24 306.676L113.523 301.695L117.224 293.995L119.69 302.204L116.24 306.676ZM128.211 303.382L122.224 301.671L119.614 292.984L127.522 297.02L128.209 303.384L128.211 303.382Z" fill="#79C8D3"/>
<path d="M1252.42 275.039L1251.64 273.091L1247.77 274.742L1245.36 273.511L1249.41 271.142L1248.4 269.306L1243.14 272.383L1241.17 271.374L1245.12 269.087C1245.41 268.914 1245.61 268.601 1245.63 268.25C1245.66 267.9 1245.52 267.56 1245.25 267.341L1241.7 264.434L1243.81 263.762L1248.53 267.661L1249.81 266.015L1246.17 263.01L1248.74 262.191L1252.3 264.452L1253.38 262.658L1251.34 261.363L1254.5 260.353L1253.89 258.34L1250.68 259.362L1251.41 256.386L1249.43 255.871L1248.39 260.091L1245.59 260.99L1246.73 256.335L1244.74 255.819L1243.29 261.718L1241.24 262.372L1242.62 257.268C1242.71 256.93 1242.63 256.568 1242.41 256.302C1242.2 256.039 1241.87 255.902 1241.52 255.938L1236.41 256.524L1237.36 254.547L1243.24 254.01L1243.07 251.908L1238.43 252.331L1239.73 249.615L1243.94 249.231L1243.76 247.132L1240.79 247.402L1242.28 244.301L1240.45 243.367L1238.98 246.419L1238.07 244.139L1236.17 244.945L1237.78 248.93L1236.58 251.419L1234.28 247.24L1232.5 248.28L1235.49 253.698L1234.51 255.733L1232.29 251.663C1231.96 251.052 1231.02 250.975 1230.59 251.524L1227.78 255.181L1227.12 253.01L1230.91 248.148L1229.31 246.829L1226.39 250.579L1225.6 247.925L1227.79 244.254L1226.05 243.148L1224.79 245.248L1223.81 241.996L1221.86 242.619L1222.85 245.924L1219.96 245.172L1219.46 247.215L1223.56 248.282L1224.43 251.178L1219.92 250L1219.42 252.047L1225.14 253.539L1225.77 255.65L1220.82 254.232C1220.49 254.145 1220.14 254.22 1219.88 254.447C1219.63 254.672 1219.49 255.016 1219.53 255.366L1220.1 260.626L1218.18 259.648L1217.66 253.587L1215.62 253.772L1216.03 258.554L1213.39 257.207L1213.02 252.871L1210.98 253.056L1211.25 256.113L1208.24 254.58L1207.33 256.467L1210.29 257.981L1208.08 258.925L1208.87 260.872L1212.73 259.222L1215.14 260.452L1211.09 262.823L1212.1 264.657L1217.36 261.58L1219.33 262.589L1215.38 264.879C1215.09 265.051 1214.89 265.363 1214.87 265.713C1214.84 266.063 1214.99 266.404 1215.25 266.623L1218.8 269.527L1216.69 270.201L1211.97 266.303L1210.69 267.95L1214.33 270.951L1211.76 271.771L1208.19 269.51L1207.12 271.304L1209.16 272.6L1206 273.608L1206.61 275.622L1209.81 274.6L1209.08 277.576L1211.07 278.092L1212.1 273.869L1214.91 272.972L1213.77 277.627L1215.75 278.142L1217.2 272.243L1219.25 271.588L1217.88 276.693C1217.79 277.03 1217.87 277.396 1218.09 277.66C1218.3 277.927 1218.64 278.066 1218.98 278.025L1224.09 277.437L1223.14 279.415L1217.25 279.953L1217.43 282.053L1222.07 281.633L1220.77 284.348L1216.56 284.731L1216.74 286.831L1219.7 286.56L1218.22 289.66L1220.05 290.595L1221.52 287.541L1222.43 289.823L1224.33 289.014L1222.72 285.031L1223.92 282.545L1226.22 286.722L1228 285.681L1225.01 280.263L1225.99 278.228L1228.21 282.296C1228.38 282.601 1228.69 282.802 1229.02 282.83C1229.36 282.858 1229.69 282.709 1229.9 282.435L1232.73 278.779L1233.38 280.95L1229.59 285.812L1231.19 287.132L1234.11 283.383L1234.91 286.035L1232.71 289.705L1234.45 290.814L1235.71 288.71L1236.69 291.965L1238.64 291.342L1237.65 288.037L1240.54 288.791L1241.04 286.748L1236.94 285.68L1236.07 282.786L1240.59 283.961L1241.09 281.917L1235.36 280.424L1234.73 278.313L1239.68 279.728C1240.02 279.821 1240.36 279.741 1240.62 279.515C1240.88 279.289 1241.01 278.944 1240.97 278.595L1240.4 273.335L1242.32 274.313L1242.84 280.374L1244.88 280.19L1244.47 275.407L1247.11 276.753L1247.48 281.092L1249.52 280.908L1249.25 277.85L1252.26 279.383L1253.17 277.493L1250.21 275.982L1252.42 275.037L1252.42 275.039ZM1242.79 268.015L1238.95 270.241L1233 267.21L1239.34 265.189L1242.79 268.015ZM1240.25 258.21L1238.93 263.115L1232.22 265.252L1235.34 258.773L1240.25 258.21ZM1231.25 254.07L1233.41 258.027L1230.47 264.15L1228.51 257.624L1231.25 254.07ZM1221.74 256.686L1226.5 258.045L1228.57 264.951L1222.28 261.745L1221.74 256.686ZM1217.72 265.952L1221.56 263.725L1227.5 266.756L1221.17 268.777L1217.72 265.952ZM1220.26 275.758L1221.58 270.853L1228.28 268.715L1225.17 275.193L1220.26 275.758ZM1229.25 279.901L1227.09 275.941L1230.03 269.82L1231.99 276.346L1229.25 279.901ZM1238.77 277.282L1234.01 275.922L1231.93 269.016L1238.22 272.225L1238.77 277.283L1238.77 277.282Z" fill="#79C8D3"/>
<path d="M637.79 329.647L637.363 328.588L635.26 329.485L633.948 328.816L636.153 327.528L635.602 326.529L632.744 328.202L631.669 327.654L633.817 326.41C633.979 326.316 634.083 326.145 634.098 325.954C634.112 325.764 634.036 325.579 633.89 325.461L631.961 323.88L633.107 323.514L635.672 325.634L636.369 324.739L634.39 323.105L635.789 322.66L637.727 323.889L638.311 322.914L637.201 322.21L638.92 321.66L638.59 320.566L636.845 321.121L637.242 319.503L636.165 319.223L635.6 321.518L634.073 322.007L634.694 319.475L633.615 319.195L632.826 322.403L631.712 322.758L632.46 319.982C632.509 319.799 632.467 319.602 632.347 319.457C632.229 319.314 632.05 319.24 631.863 319.259L629.084 319.578L629.601 318.503L632.8 318.211L632.702 317.067L630.179 317.297L630.889 315.82L633.18 315.612L633.081 314.47L631.466 314.617L632.277 312.931L631.279 312.423L630.483 314.082L629.984 312.843L628.955 313.281L629.827 315.448L629.176 316.802L627.926 314.529L626.957 315.095L628.581 318.041L628.05 319.148L626.841 316.934C626.661 316.602 626.151 316.56 625.92 316.859L624.387 318.847L624.032 317.667L626.09 315.023L625.221 314.306L623.636 316.345L623.202 314.902L624.397 312.905L623.449 312.304L622.766 313.446L622.233 311.677L621.17 312.016L621.71 313.813L620.14 313.404L619.867 314.515L622.096 315.096L622.57 316.67L620.113 316.03L619.841 317.143L622.954 317.954L623.299 319.103L620.605 318.332C620.423 318.284 620.236 318.325 620.095 318.448C619.955 318.571 619.883 318.758 619.903 318.948L620.213 321.809L619.168 321.277L618.885 317.981L617.778 318.081L618 320.682L616.566 319.949L616.365 317.591L615.256 317.692L615.399 319.354L613.763 318.521L613.269 319.547L614.881 320.37L613.676 320.884L614.104 321.943L616.205 321.045L617.519 321.714L615.314 323.003L615.862 324.001L618.722 322.328L619.797 322.876L617.649 324.122C617.488 324.215 617.382 324.385 617.368 324.575C617.353 324.765 617.432 324.951 617.575 325.07L619.505 326.649L618.359 327.016L615.793 324.896L615.098 325.791L617.076 327.424L615.676 327.87L613.739 326.64L613.153 327.616L614.264 328.32L612.545 328.869L612.875 329.964L614.618 329.408L614.221 331.026L615.301 331.307L615.863 329.011L617.392 328.523L616.772 331.054L617.85 331.334L618.637 328.126L619.754 327.77L619.005 330.547C618.956 330.729 618.998 330.928 619.118 331.072C619.237 331.217 619.42 331.293 619.604 331.27L622.381 330.951L621.864 332.027L618.665 332.319L618.762 333.461L621.286 333.233L620.576 334.709L618.285 334.918L618.384 336.059L619.997 335.912L619.188 337.598L620.185 338.106L620.984 336.446L621.482 337.687L622.511 337.247L621.639 335.081L622.29 333.729L623.541 336L624.509 335.434L622.885 332.488L623.418 331.381L624.625 333.593C624.715 333.759 624.882 333.868 625.066 333.884C625.251 333.899 625.431 333.818 625.545 333.669L627.08 331.681L627.434 332.861L625.377 335.505L626.247 336.223L627.831 334.185L628.265 335.626L627.071 337.622L628.019 338.226L628.702 337.082L629.233 338.852L630.297 338.513L629.757 336.716L631.329 337.125L631.601 336.014L629.372 335.434L628.899 333.86L631.354 334.499L631.627 333.387L628.514 332.575L628.168 331.428L630.863 332.197C631.044 332.248 631.233 332.204 631.372 332.081C631.513 331.958 631.584 331.77 631.564 331.581L631.254 328.72L632.297 329.252L632.582 332.548L633.69 332.448L633.468 329.847L634.9 330.579L635.104 332.938L636.211 332.838L636.068 331.176L637.704 332.009L638.2 330.981L636.587 330.159L637.791 329.646L637.79 329.647ZM632.55 325.827L630.462 327.038L627.23 325.389L630.675 324.29L632.55 325.827ZM631.169 320.495L630.452 323.162L626.807 324.324L628.5 320.801L631.169 320.495ZM626.279 318.243L627.453 320.395L625.853 323.725L624.787 320.176L626.279 318.243ZM621.103 319.666L623.691 320.405L624.82 324.161L621.401 322.417L621.103 319.666ZM618.917 324.705L621.007 323.494L624.237 325.142L620.794 326.242L618.917 324.705ZM620.299 330.038L621.017 327.37L624.662 326.208L622.968 329.73L620.299 330.038ZM625.189 332.291L624.015 330.137L625.615 326.808L626.681 330.358L625.189 332.291ZM630.365 330.867L627.776 330.127L626.648 326.371L630.067 328.116L630.364 330.867L630.365 330.867Z" fill="#79C8D3"/>
</svg>
